<?xml version="1.0" encoding="utf-8"?>
<!-- Generator: Adobe Illustrator 27.5.0, SVG Export Plug-In . SVG Version: 6.00 Build 0)  -->
<svg version="1.1" xmlns="http://www.w3.org/2000/svg" xmlns:xlink="http://www.w3.org/1999/xlink" x="0px" y="0px"
	 viewBox="0 0 750 500" style="enable-background:new 0 0 750 500;" xml:space="preserve">
<g id="Background_Complete">
	<g>
		<g>
			<g>
				<rect x="578.907" y="137.612" style="fill:#F5F5F5;" width="131.234" height="87.896"/>
			</g>
		</g>
		<g>
			<g>
				<rect x="578.907" y="137.612" style="fill:#EBEBEB;" width="131.234" height="8.78"/>
			</g>
		</g>
		<g>
			<g>
				<path style="fill:#FFFFFF;" d="M584.591,142.002c0,0.545-0.475,0.986-1.061,0.986c-0.586,0-1.061-0.441-1.061-0.986
					c0-0.545,0.475-0.986,1.061-0.986C584.116,141.016,584.591,141.457,584.591,142.002z"/>
			</g>
		</g>
		<g>
			<g>
				<path style="fill:#FFFFFF;" d="M588.014,142.002c0,0.545-0.475,0.986-1.061,0.986c-0.586,0-1.061-0.441-1.061-0.986
					c0-0.545,0.475-0.986,1.061-0.986C587.539,141.016,588.014,141.457,588.014,142.002z"/>
			</g>
		</g>
		<g>
			<g>
				<path style="fill:#FFFFFF;" d="M591.437,142.002c0,0.545-0.475,0.986-1.061,0.986c-0.586,0-1.061-0.441-1.061-0.986
					c0-0.545,0.475-0.986,1.061-0.986C590.962,141.016,591.437,141.457,591.437,142.002z"/>
			</g>
		</g>
	</g>
	<g>
		<g>
			<g>
				<rect x="306.308" y="65.406" style="fill:#E0E0E0;" width="246.334" height="164.986"/>
			</g>
		</g>
		<g>
			<g>
				<rect x="306.308" y="65.406" style="fill:#E0E0E0;" width="246.334" height="16.48"/>
			</g>
		</g>
		<g>
			<g>
				<path style="fill:#FFFFFF;" d="M316.978,73.646c0,1.022-0.892,1.851-1.991,1.851c-1.1,0-1.991-0.829-1.991-1.851
					c0-1.022,0.891-1.85,1.991-1.85C316.086,71.796,316.978,72.624,316.978,73.646z"/>
			</g>
		</g>
		<g>
			<g>
				<path style="fill:#FFFFFF;" d="M323.403,73.646c0,1.022-0.891,1.851-1.991,1.851c-1.099,0-1.991-0.829-1.991-1.851
					c0-1.022,0.892-1.85,1.991-1.85C322.512,71.796,323.403,72.624,323.403,73.646z"/>
			</g>
		</g>
		<g>
			<g>
				<path style="fill:#FFFFFF;" d="M329.828,73.646c0,1.022-0.891,1.851-1.991,1.851c-1.099,0-1.991-0.829-1.991-1.851
					c0-1.022,0.892-1.85,1.991-1.85C328.937,71.796,329.828,72.624,329.828,73.646z"/>
			</g>
		</g>
	</g>
	<g>
		<g>
			<g>
				<rect x="513.742" y="211.503" style="fill:#E0E0E0;" width="185.033" height="123.929"/>
			</g>
		</g>
		<g>
			<g>
				<rect x="513.742" y="211.503" style="fill:#E0E0E0;" width="185.033" height="12.379"/>
			</g>
		</g>
		<g>
			<g>
				<path style="fill:#FFFFFF;" d="M521.757,217.692c0,0.768-0.67,1.39-1.495,1.39c-0.826,0-1.496-0.622-1.496-1.39
					c0-0.768,0.67-1.39,1.496-1.39C521.087,216.302,521.757,216.924,521.757,217.692z"/>
			</g>
		</g>
		<g>
			<g>
				<path style="fill:#FFFFFF;" d="M526.583,217.692c0,0.768-0.669,1.39-1.496,1.39c-0.826,0-1.495-0.622-1.495-1.39
					c0-0.768,0.67-1.39,1.495-1.39C525.914,216.302,526.583,216.924,526.583,217.692z"/>
			</g>
		</g>
		<g>
			<g>
				<path style="fill:#FFFFFF;" d="M531.41,217.692c0,0.768-0.669,1.39-1.495,1.39c-0.826,0-1.495-0.622-1.495-1.39
					c0-0.768,0.67-1.39,1.495-1.39C530.74,216.302,531.41,216.924,531.41,217.692z"/>
			</g>
		</g>
	</g>
	<g>
		<g>
			<g>
				<rect x="279.315" y="304.579" style="fill:#F5F5F5;" width="131.234" height="87.896"/>
			</g>
		</g>
		<g>
			<g>
				<rect x="279.315" y="304.579" style="fill:#EBEBEB;" width="131.234" height="8.78"/>
			</g>
		</g>
		<g>
			<g>
				<path style="fill:#FFFFFF;" d="M284.999,308.969c0,0.545-0.475,0.986-1.061,0.986c-0.586,0-1.061-0.441-1.061-0.986
					c0-0.545,0.475-0.986,1.061-0.986C284.524,307.983,284.999,308.424,284.999,308.969z"/>
			</g>
		</g>
		<g>
			<g>
				<path style="fill:#FFFFFF;" d="M288.422,308.969c0,0.545-0.475,0.986-1.061,0.986c-0.586,0-1.061-0.441-1.061-0.986
					c0-0.545,0.475-0.986,1.061-0.986C287.948,307.983,288.422,308.424,288.422,308.969z"/>
			</g>
		</g>
		<g>
			<g>
				<path style="fill:#FFFFFF;" d="M291.845,308.969c0,0.545-0.475,0.986-1.061,0.986c-0.586,0-1.061-0.441-1.061-0.986
					c0-0.545,0.475-0.986,1.061-0.986C291.371,307.983,291.845,308.424,291.845,308.969z"/>
			</g>
		</g>
	</g>
	<g>
		<g>
			<g>
				<rect x="86.713" y="93.475" style="fill:#F5F5F5;" width="131.234" height="87.896"/>
			</g>
		</g>
		<g>
			<g>
				<rect x="86.713" y="93.475" style="fill:#EBEBEB;" width="131.234" height="8.78"/>
			</g>
		</g>
		<g>
			<g>
				<path style="fill:#FFFFFF;" d="M92.397,97.865c0,0.545-0.475,0.986-1.061,0.986c-0.586,0-1.061-0.441-1.061-0.986
					c0-0.545,0.475-0.986,1.061-0.986C91.922,96.879,92.397,97.32,92.397,97.865z"/>
			</g>
		</g>
		<g>
			<g>
				<path style="fill:#FFFFFF;" d="M95.82,97.865c0,0.545-0.475,0.986-1.061,0.986c-0.586,0-1.061-0.441-1.061-0.986
					c0-0.545,0.475-0.986,1.061-0.986C95.345,96.879,95.82,97.32,95.82,97.865z"/>
			</g>
		</g>
		<g>
			<g>
				<path style="fill:#FFFFFF;" d="M99.243,97.865c0,0.545-0.475,0.986-1.061,0.986c-0.586,0-1.061-0.441-1.061-0.986
					c0-0.545,0.475-0.986,1.061-0.986C98.768,96.879,99.243,97.32,99.243,97.865z"/>
			</g>
		</g>
	</g>
	<g>
		<g>
			<g>
				<rect x="154.487" y="56.057" style="fill:#E0E0E0;" width="127.556" height="85.433"/>
			</g>
		</g>
		<g>
			<g>
				<rect x="154.487" y="56.057" style="fill:#E0E0E0;" width="127.556" height="8.534"/>
			</g>
		</g>
		<g>
			<g>
				<path style="fill:#FFFFFF;" d="M160.012,60.324c0,0.529-0.462,0.958-1.031,0.958c-0.569,0-1.031-0.429-1.031-0.958
					s0.462-0.958,1.031-0.958C159.551,59.366,160.012,59.794,160.012,60.324z"/>
			</g>
		</g>
		<g>
			<g>
				<path style="fill:#FFFFFF;" d="M163.339,60.324c0,0.529-0.462,0.958-1.031,0.958c-0.569,0-1.031-0.429-1.031-0.958
					s0.462-0.958,1.031-0.958C162.878,59.366,163.339,59.794,163.339,60.324z"/>
			</g>
		</g>
		<g>
			<g>
				<path style="fill:#FFFFFF;" d="M166.666,60.324c0,0.529-0.462,0.958-1.031,0.958c-0.569,0-1.031-0.429-1.031-0.958
					s0.462-0.958,1.031-0.958C166.205,59.366,166.666,59.794,166.666,60.324z"/>
			</g>
		</g>
	</g>
	<g>
		<g>
			<g>
				<rect x="287.617" y="82.293" style="fill:#F5F5F5;" width="246.334" height="164.986"/>
			</g>
		</g>
		<g>
			<g>
				<rect x="287.617" y="82.293" style="fill:#EBEBEB;" width="246.334" height="16.48"/>
			</g>
		</g>
		<g>
			<g>
				<path style="fill:#FFFFFF;" d="M298.287,90.533c0,1.022-0.892,1.851-1.991,1.851c-1.1,0-1.991-0.829-1.991-1.851
					c0-1.022,0.892-1.85,1.991-1.85C297.396,88.683,298.287,89.511,298.287,90.533z"/>
			</g>
		</g>
		<g>
			<g>
				<path style="fill:#FFFFFF;" d="M304.712,90.533c0,1.022-0.891,1.851-1.991,1.851c-1.099,0-1.991-0.829-1.991-1.851
					c0-1.022,0.892-1.85,1.991-1.85C303.821,88.683,304.712,89.511,304.712,90.533z"/>
			</g>
		</g>
		<g>
			<g>
				<path style="fill:#FFFFFF;" d="M311.138,90.533c0,1.022-0.891,1.851-1.991,1.851c-1.099,0-1.991-0.829-1.991-1.851
					c0-1.022,0.892-1.85,1.991-1.85C310.246,88.683,311.138,89.511,311.138,90.533z"/>
			</g>
		</g>
	</g>
	<g>
		<g>
			<g>
				<rect x="217.408" y="118.769" style="fill:#F5F5F5;" width="246.334" height="164.986"/>
			</g>
		</g>
		<g>
			<g>
				<rect x="217.408" y="118.769" style="fill:#EBEBEB;" width="246.334" height="16.48"/>
			</g>
		</g>
		<g>
			<g>
				<path style="fill:#FFFFFF;" d="M228.078,127.009c0,1.022-0.892,1.851-1.991,1.851c-1.1,0-1.991-0.829-1.991-1.851
					c0-1.022,0.892-1.851,1.991-1.851C227.186,125.159,228.078,125.987,228.078,127.009z"/>
			</g>
		</g>
		<g>
			<g>
				<path style="fill:#FFFFFF;" d="M234.503,127.009c0,1.022-0.891,1.851-1.991,1.851c-1.099,0-1.991-0.829-1.991-1.851
					c0-1.022,0.892-1.851,1.991-1.851C233.611,125.159,234.503,125.987,234.503,127.009z"/>
			</g>
		</g>
		<g>
			<g>
				<path style="fill:#FFFFFF;" d="M240.928,127.009c0,1.022-0.891,1.851-1.991,1.851c-1.099,0-1.991-0.829-1.991-1.851
					c0-1.022,0.892-1.851,1.991-1.851C240.037,125.159,240.928,125.987,240.928,127.009z"/>
			</g>
		</g>
	</g>
</g>
<g id="Background_Simple" style="display:none;">
	<path style="display:inline;fill:#F0F0F0;" d="M165.048,77.231c83.511-70.975,266.508,89.374,333.53,76.352
		s163.72,21.347,145.502,99.876c-20.227,87.186-254.618,88.143-357.033,58.131C184.632,281.579,86.279,144.175,165.048,77.231z"/>
</g>
<g id="Floor">
	<g>
		<g>
			<path style="fill:#263238;" d="M641.042,449.614c0,0.144-119.121,0.26-266.03,0.26c-146.96,0-266.055-0.117-266.055-0.26
				s119.095-0.26,266.055-0.26C521.921,449.354,641.042,449.47,641.042,449.614z"/>
		</g>
	</g>
</g>
<g id="Characters">
	<g>
		<g>
			<path style="fill:#FFBE9D;" d="M538.448,186.931c0,0-7.083-7.143-8.101-8.889c-5.275-9.045-28.463-47.911-28.463-47.911
				l-12.847,8.696c0,0,26.482,47.653,31.919,54.203c5.436,6.55,13.064,13.072,13.064,13.072L538.448,186.931z"/>
		</g>
		<g>
			<g>
				<path style="fill:#B78876;" d="M242.369,151.235c0.029,0.008,8.829-15.313,13.253-14.445c4.423,0.868,8.316,4.07,8.316,4.07
					l-11.25,13.217L242.369,151.235z"/>
			</g>
			<g>
				<polygon style="fill:#263238;" points="190.956,188.456 222.788,176.365 242.516,146.366 254.65,152.659 231.703,193.555 
					193.974,207.861 				"/>
			</g>
		</g>
		<g>
			<g>
				<g>
					<g>
						<g>
							<g>
								<rect x="255.709" y="97.667" style="fill:#FAFAFA;" width="249.861" height="167.348"/>
							</g>
						</g>
					</g>
					<g>
						<g>
							<g>
								<rect x="255.709" y="97.667" style="fill:#455A64;" width="249.861" height="16.716"/>
							</g>
						</g>
					</g>
					<g>
						<g>
							<g>
								<path style="fill:#FFFFFF;" d="M266.532,106.025c0,1.037-0.904,1.877-2.019,1.877c-1.115,0-2.02-0.84-2.02-1.877
									c0-1.037,0.904-1.877,2.02-1.877C265.628,104.148,266.532,104.988,266.532,106.025z"/>
							</g>
						</g>
					</g>
					<g>
						<g>
							<g>
								<path style="fill:#FFFFFF;" d="M273.049,106.025c0,1.037-0.904,1.877-2.019,1.877c-1.115,0-2.019-0.84-2.019-1.877
									c0-1.037,0.904-1.877,2.019-1.877C272.145,104.148,273.049,104.988,273.049,106.025z"/>
							</g>
						</g>
					</g>
					<g>
						<g>
							<g>
								<path style="fill:#FFFFFF;" d="M279.566,106.025c0,1.037-0.904,1.877-2.019,1.877c-1.115,0-2.019-0.84-2.019-1.877
									c0-1.037,0.904-1.877,2.019-1.877C278.662,104.148,279.566,104.988,279.566,106.025z"/>
							</g>
						</g>
					</g>
				</g>
				<g>
					<g>
						<g>
							<g>
								<path style="fill:#263238;" d="M505.57,265.015c-0.002-1.7-0.081-65.404-0.208-167.348l0.208,0.208
									c-68.85,0.014-155.707,0.033-249.841,0.052h-0.02l0.26-0.26c-0.008,59.62-0.015,116.315-0.022,167.348l-0.238-0.238
									C402.88,264.917,503.439,265.013,505.57,265.015c-2.13,0.002-102.69,0.098-249.861,0.239l-0.239,0l0-0.239
									c-0.007-51.033-0.014-107.728-0.022-167.348l0-0.26h0.261h0.02c94.134,0.02,180.992,0.038,249.841,0.052h0.208l0,0.208
									C505.652,199.611,505.573,263.316,505.57,265.015z"/>
							</g>
						</g>
					</g>
				</g>
			</g>
			<g>
				<g>
					<polygon style="fill:#263238;" points="327.772,181.739 325.022,181.739 325.022,181.239 327.272,181.239 327.272,178.989 
						327.772,178.989 					"/>
				</g>
				<g>
					<path style="fill:#263238;" d="M319.871,181.739h-5.151v-0.5h5.151V181.739z M309.569,181.739h-5.151v-0.5h5.151V181.739z
						 M299.267,181.739h-5.151v-0.5h5.151V181.739z M288.965,181.739h-5.151v-0.5h5.151V181.739z"/>
				</g>
				<g>
					<polygon style="fill:#263238;" points="278.664,181.739 275.914,181.739 275.914,178.989 276.414,178.989 276.414,181.239 
						278.664,181.239 					"/>
				</g>
				<g>
					<path style="fill:#263238;" d="M276.414,173.838h-0.5v-5.151h0.5V173.838z M276.414,163.537h-0.5v-5.151h0.5V163.537z
						 M276.414,153.235h-0.5v-5.151h0.5V153.235z M276.414,142.933h-0.5v-5.151h0.5V142.933z"/>
				</g>
				<g>
					<polygon style="fill:#263238;" points="276.414,132.631 275.914,132.631 275.914,129.881 278.664,129.881 278.664,130.381 
						276.414,130.381 					"/>
				</g>
				<g>
					<path style="fill:#263238;" d="M319.871,130.381h-5.151v-0.5h5.151V130.381z M309.569,130.381h-5.151v-0.5h5.151V130.381z
						 M299.267,130.381h-5.151v-0.5h5.151V130.381z M288.965,130.381h-5.151v-0.5h5.151V130.381z"/>
				</g>
				<g>
					<polygon style="fill:#263238;" points="327.772,132.631 327.272,132.631 327.272,130.381 325.022,130.381 325.022,129.881 
						327.772,129.881 					"/>
				</g>
				<g>
					<path style="fill:#263238;" d="M327.772,173.838h-0.5v-5.151h0.5V173.838z M327.772,163.537h-0.5v-5.151h0.5V163.537z
						 M327.772,153.235h-0.5v-5.151h0.5V153.235z M327.772,142.933h-0.5v-5.151h0.5V142.933z"/>
				</g>
			</g>
			<g>
				<g>
					<rect x="273.295" y="191.064" style="fill:#455A64;" width="56.812" height="3.8"/>
				</g>
				<g>
					<rect x="346.676" y="138.3" style="fill:#455A64;" width="56.812" height="3.801"/>
				</g>
				<g>
					<g>
						<path style="fill:#455A64;" d="M487.985,152.453c0,0.144-31.636,0.26-70.651,0.26c-39.029,0-70.658-0.117-70.658-0.26
							c0-0.144,31.629-0.26,70.658-0.26C456.349,152.193,487.985,152.31,487.985,152.453z"/>
					</g>
				</g>
				<g>
					<g>
						<path style="fill:#455A64;" d="M487.985,160.752c0,0.144-31.636,0.26-70.651,0.26c-39.029,0-70.658-0.117-70.658-0.26
							s31.629-0.26,70.658-0.26C456.349,160.492,487.985,160.608,487.985,160.752z"/>
					</g>
				</g>
				<g>
					<g>
						<path style="fill:#455A64;" d="M487.985,169.051c0,0.144-31.636,0.26-70.651,0.26c-39.029,0-70.658-0.117-70.658-0.26
							c0-0.144,31.629-0.26,70.658-0.26C456.349,168.791,487.985,168.907,487.985,169.051z"/>
					</g>
				</g>
				<g>
					<g>
						<path style="fill:#455A64;" d="M487.985,177.35c0,0.144-31.636,0.26-70.651,0.26c-39.029,0-70.658-0.117-70.658-0.26
							c0-0.144,31.629-0.26,70.658-0.26C456.349,177.089,487.985,177.206,487.985,177.35z"/>
					</g>
				</g>
				<g>
					<g>
						<path style="fill:#455A64;" d="M487.985,185.648c0,0.144-31.636,0.26-70.651,0.26c-39.029,0-70.658-0.117-70.658-0.26
							c0-0.144,31.629-0.26,70.658-0.26C456.349,185.388,487.985,185.505,487.985,185.648z"/>
					</g>
				</g>
				<g>
					<g>
						<path style="fill:#455A64;" d="M401.836,193.947c0,0.144-12.349,0.26-27.579,0.26c-15.235,0-27.581-0.117-27.581-0.26
							s12.346-0.26,27.581-0.26C389.487,193.687,401.836,193.803,401.836,193.947z"/>
					</g>
				</g>
				<g>
					<g>
						<path style="fill:#455A64;" d="M486.952,210.053c0,0.144-20.793,0.26-46.438,0.26c-25.653,0-46.442-0.117-46.442-0.26
							s20.789-0.26,46.442-0.26C466.158,209.793,486.952,209.909,486.952,210.053z"/>
					</g>
				</g>
				<g>
					<g>
						<path style="fill:#455A64;" d="M486.952,218.862c0,0.144-20.793,0.26-46.438,0.26c-25.653,0-46.442-0.117-46.442-0.26
							s20.789-0.26,46.442-0.26C466.158,218.602,486.952,218.718,486.952,218.862z"/>
					</g>
				</g>
				<g>
					<g>
						<path style="fill:#455A64;" d="M486.952,227.671c0,0.144-20.793,0.26-46.438,0.26c-25.653,0-46.442-0.117-46.442-0.26
							s20.789-0.26,46.442-0.26C466.158,227.411,486.952,227.528,486.952,227.671z"/>
					</g>
				</g>
				<g>
					<g>
						<path style="fill:#455A64;" d="M486.952,236.481c0,0.144-20.793,0.26-46.438,0.26c-25.653,0-46.442-0.117-46.442-0.26
							s20.789-0.26,46.442-0.26C466.158,236.22,486.952,236.337,486.952,236.481z"/>
					</g>
				</g>
				<g>
					<g>
						<path style="fill:#455A64;" d="M330.251,209.21c0,0.144-12.395,0.26-27.682,0.26c-15.292,0-27.685-0.117-27.685-0.26
							c0-0.144,12.393-0.26,27.685-0.26C317.856,208.95,330.251,209.066,330.251,209.21z"/>
					</g>
				</g>
				<g>
					<g>
						<path style="fill:#455A64;" d="M330.251,216.128c0,0.144-12.395,0.26-27.682,0.26c-15.292,0-27.685-0.117-27.685-0.26
							s12.393-0.26,27.685-0.26C317.856,215.868,330.251,215.985,330.251,216.128z"/>
					</g>
				</g>
				<g>
					<g>
						<path style="fill:#455A64;" d="M330.251,223.046c0,0.144-12.395,0.26-27.682,0.26c-15.292,0-27.685-0.117-27.685-0.26
							c0-0.144,12.393-0.26,27.685-0.26C317.856,222.786,330.251,222.903,330.251,223.046z"/>
					</g>
				</g>
				<g>
					<g>
						<path style="fill:#455A64;" d="M330.251,229.965c0,0.144-12.395,0.26-27.682,0.26c-15.292,0-27.685-0.117-27.685-0.26
							s12.393-0.26,27.685-0.26C317.856,229.704,330.251,229.821,330.251,229.965z"/>
					</g>
				</g>
				<g>
					<g>
						<path style="fill:#455A64;" d="M330.251,236.883c0,0.144-12.395,0.26-27.682,0.26c-15.292,0-27.685-0.117-27.685-0.26
							c0-0.144,12.393-0.26,27.685-0.26C317.856,236.622,330.251,236.739,330.251,236.883z"/>
					</g>
				</g>
				<g>
					<g>
						<g>
							<g>
								<rect x="346.641" y="205.85" style="fill:#455A64;" width="40.308" height="38.998"/>
							</g>
						</g>
					</g>
					<g>
						<g>
							<g>
								<polygon style="fill:#E8505B;" points="349.766,241.51 360.917,221.442 370.037,234.269 375.579,227.457 383.824,241.51 
																	"/>
							</g>
						</g>
					</g>
					<g>
						<g>
							<g>
								<path style="fill:#E8505B;" d="M373.922,217.539c0,1.602-1.299,2.901-2.901,2.901c-1.602,0-2.901-1.299-2.901-2.901
									c0-1.602,1.299-2.901,2.901-2.901C372.624,214.638,373.922,215.937,373.922,217.539z"/>
							</g>
						</g>
					</g>
					<g>
						<g>
							<g>
								<g>
									<path style="fill:#263238;" d="M383.824,241.618c-0.003-0.003-0.006-0.057-0.009-0.16
										c-0.002-0.117-0.005-0.265-0.009-0.455c-0.005-0.415-0.011-1.001-0.019-1.755c-0.01-1.547-0.024-3.783-0.043-6.623
										c-0.021-5.696-0.05-13.807-0.085-23.546l0.165,0.165c-9.864,0.008-21.557,0.017-34.055,0.027
										c-0.046,0.04,0.36-0.361,0.189-0.187v0.009v0.017v0.035v0.07v0.139v0.278v0.556v1.108c0,0.737,0,1.471,0,2.202
										c0,1.461-0.001,2.909-0.001,4.342c-0.002,2.866-0.003,5.672-0.005,8.403c-0.006,5.462-0.013,10.625-0.018,15.375
										l-0.167-0.167c10.165,0.035,18.655,0.065,24.625,0.085c2.976,0.019,5.323,0.033,6.945,0.044
										c0.793,0.008,1.408,0.015,1.843,0.02c0.199,0.004,0.355,0.007,0.477,0.009
										C383.764,241.612,383.821,241.615,383.824,241.618c0.003,0.003-0.047,0.006-0.149,0.009
										c-0.118,0.002-0.267,0.006-0.459,0.01c-0.427,0.004-1.031,0.011-1.81,0.019c-1.613,0.01-3.948,0.025-6.908,0.044
										c-5.995,0.021-14.523,0.05-24.732,0.085l-0.167,0.001v-0.168c-0.006-4.75-0.012-9.914-0.018-15.375
										c-0.002-2.732-0.003-5.537-0.005-8.403c0-1.433-0.001-2.881-0.001-4.342c0-0.731,0-1.465,0-2.202v-1.108l0-0.556v-0.278
										v-0.139v-0.07v-0.035v-0.017v-0.009c-0.171,0.169,0.233-0.24,0.195-0.197c12.498,0.01,24.191,0.019,34.055,0.027l0.165,0
										l-0.001,0.165c-0.035,9.782-0.064,17.93-0.084,23.651c-0.018,2.824-0.033,5.048-0.043,6.586
										c-0.008,0.741-0.015,1.316-0.019,1.723c-0.004,0.182-0.007,0.325-0.009,0.437
										C383.83,241.574,383.827,241.621,383.824,241.618z"/>
								</g>
							</g>
						</g>
					</g>
				</g>
			</g>
		</g>
		<g>
			<g>
				<g>
					<g>
						<rect x="259.139" y="124.12" style="fill:#E8505B;" width="56.956" height="55.104"/>
					</g>
				</g>
			</g>
			<g>
				<g>
					<g>
						<polygon style="fill:#FAFAFA;" points="263.555,174.508 279.311,146.152 292.198,164.276 300.029,154.652 311.679,174.508 
													"/>
					</g>
				</g>
			</g>
			<g>
				<g>
					<g>
						<circle style="fill:#FAFAFA;" cx="293.589" cy="140.637" r="4.099"/>
					</g>
				</g>
			</g>
			<g>
				<g>
					<g>
						<g>
							<path style="fill:#FAFAFA;" d="M311.679,174.661c-0.004-0.004-0.008-0.081-0.013-0.226c-0.003-0.165-0.008-0.375-0.013-0.642
								c-0.007-0.586-0.016-1.414-0.027-2.48c-0.014-2.185-0.034-5.346-0.06-9.358c-0.029-8.048-0.07-19.51-0.119-33.271
								l0.233,0.233c-13.938,0.011-30.46,0.024-48.119,0.039c-0.065,0.057,0.509-0.51,0.266-0.264v0.012v0.025v0.049v0.098v0.197
								v0.393v0.785v1.565c0,1.041,0,2.078,0,3.111c-0.001,2.065-0.001,4.111-0.002,6.135c-0.002,4.049-0.004,8.014-0.007,11.874
								c-0.009,7.717-0.018,15.014-0.026,21.725l-0.236-0.236c14.363,0.05,26.36,0.091,34.795,0.12
								c4.206,0.026,7.522,0.047,9.814,0.062c1.12,0.012,1.989,0.021,2.604,0.028c0.282,0.006,0.502,0.01,0.674,0.013
								C311.595,174.652,311.675,174.657,311.679,174.661c0.005,0.004-0.066,0.009-0.21,0.013c-0.166,0.003-0.378,0.008-0.649,0.014
								c-0.604,0.006-1.457,0.016-2.558,0.027c-2.28,0.015-5.578,0.035-9.761,0.062c-8.471,0.029-20.521,0.071-34.946,0.12
								l-0.236,0.001v-0.238c-0.008-6.712-0.017-14.008-0.026-21.725c-0.002-3.86-0.005-7.825-0.007-11.874
								c0-2.025-0.001-4.071-0.001-6.135c-0.001-1.033-0.001-2.07-0.001-3.111v-1.565l0-0.785v-0.393v-0.197v-0.098v-0.049v-0.025
								v-0.012c-0.242,0.238,0.329-0.34,0.276-0.279c17.659,0.014,34.181,0.027,48.119,0.038l0.234,0.001l-0.001,0.233
								c-0.049,13.823-0.09,25.335-0.119,33.42c-0.026,3.99-0.047,7.133-0.061,9.306c-0.012,1.047-0.021,1.86-0.027,2.435
								c-0.006,0.257-0.01,0.459-0.013,0.617C311.688,174.598,311.684,174.666,311.679,174.661z"/>
						</g>
					</g>
				</g>
			</g>
		</g>
		<g>
			<g>
				<path style="fill:#B78876;" d="M275.015,150.599c2.429-2.85,5.285-6.322,6.551-8.313c2.355-3.706,2.03-3.932,1.557-4.145
					c-1.272-0.572-4.388,6.357-4.57,4.458c-0.181-1.899,4.783-8.007,3.43-8.549c-1.762-0.707-4.893,6.61-5.203,7.208
					c-0.301,0.581-1.174,0.148-0.865-0.376c0.443-0.754,4.907-8.795,3.182-9.506c-0.956-0.395-1.464,1.415-1.464,1.415
					s-3.63,7.846-4.433,7.483c-0.816-0.369,1.162-5.051,1.939-6.58c0.768-1.511,0.371-2.509-0.572-2.311
					c-0.643,0.135-3.132,4.759-3.865,6.29c-0.733,1.531-2.672,5.768-3.391,2.859c-0.72-2.908-2.342-4.882-3.14-5.11
					c-0.798-0.228-1.382,0.819-0.811,1.55c0.462,0.59,0.935,1.813,1.255,2.747c0.263,0.769,0.404,1.577,0.401,2.388
					c-0.002,0.703-0.025,1.324-0.056,1.882l-0.279,5.955l6.803,4.659L275.015,150.599z"/>
			</g>
			<g>
				<g>
					<path style="fill:#B78876;" d="M194.964,332.953l7.051,107.875l16.37-1.809c0,0,0.402-105.165-0.367-105.106
						S194.964,332.953,194.964,332.953z"/>
				</g>
				<g>
					<polygon style="fill:#B78876;" points="159.359,329.859 140.943,436.808 155.496,439.019 180.99,334.942 					"/>
				</g>
			</g>
			<g>
				<g>
					<g>
						<path style="fill:#B78876;" d="M182.46,150.01l-0.114,37.088l15.912,0.759l0.46-9.021c0,0,5.652,1.122,7.11-4.127
							c0.931-3.353,0.699-29.264,0.699-29.264L182.46,150.01z"/>
					</g>
					<g>
						<path style="fill:#263238;" d="M210.119,149.103c-1.072,2.216-6.175,6.272-6.175,6.272l-2.305,6.178
							c-2.003-1.568-4.692-1.478-5.201,2.041c-0.368,2.543,2.794,3.057,2.794,3.057c-1.841,3.132-3.089,5.666-5.769,8.645
							c-2.901,3.225-4.525,3.55-7.671,3.602h-3.469c0,0-7.098-5.931-5.695-21.553s14.197-12.666,18.799-14.967
							C195.988,142.098,213.697,141.705,210.119,149.103z"/>
					</g>
				</g>
				<g>
					<path style="fill:#263238;" d="M176.29,160.411c-2.652-1.495-6.23-1.127-8.522,0.878c-2.292,2.005-3.122,5.173-3.682,8.166
						c-0.559,2.993-1.022,6.153-2.858,8.582c-0.47,0.622-1.04,1.218-1.197,1.981c-0.227,1.102,0.565,2.257,1.627,2.632
						c1.061,0.375,2.282,0.065,3.187-0.603c0.905-0.669,1.531-1.654,1.986-2.684c-0.055,1.903,1.95,3.574,3.812,3.177
						c1.806-0.385,2.9-2.224,3.482-3.976c0.704-2.118,0.987-4.376,0.827-6.603c-0.147-2.048-0.663-4.107-0.318-6.132
						c0.344-2.024,1.934-4.065,3.986-3.983"/>
				</g>
				<g>
					<path style="fill:#263238;" d="M201.639,161.553c0,0,0.864,4.626-1.292,5.098c-0.947,0.207-2.047-0.278-2.047-0.278
						l-2.164,4.781c0,0-1.378,6.865,2.582,7.682c3.664,0.757,7.465,0.261,7.834-5.537l0.103-4.187c0,0-2.903,0.655-3.185-0.671
						c-0.282-1.325-0.498-10.464-0.498-10.464L201.639,161.553z"/>
				</g>
				<g>
					<g>
						<path style="fill:#263238;" d="M160.888,173.85c0.014,0.059-0.544-0.111-1.225,0.41c-0.319,0.254-0.627,0.72-0.555,1.298
							c0.056,0.558,0.479,1.208,1.181,1.337c0.702,0.143,1.52-0.207,2.064-0.884c0.558-0.673,0.926-1.592,1.157-2.565
							c0.458-1.984,0.179-4.271,0.23-6.689c0.031-1.21,0.172-2.419,0.581-3.521c0.403-1.104,1.097-2.05,1.908-2.75
							c1.636-1.421,3.647-1.902,5.239-1.819c1.613,0.07,2.844,0.571,3.623,0.983c0.393,0.208,0.68,0.4,0.868,0.538
							c0.186,0.142,0.277,0.223,0.267,0.238c-0.025,0.039-0.428-0.239-1.223-0.593c-0.789-0.349-2.002-0.778-3.544-0.798
							c-1.523-0.033-3.399,0.464-4.913,1.811c-0.75,0.668-1.377,1.538-1.747,2.567c-0.374,1.028-0.508,2.176-0.538,3.358
							c-0.054,2.36,0.223,4.691-0.283,6.783c-0.261,1.032-0.658,1.995-1.297,2.738c-0.625,0.749-1.611,1.168-2.469,0.963
							c-0.887-0.198-1.36-1.013-1.394-1.672c-0.055-0.698,0.35-1.233,0.723-1.484C160.347,173.574,160.922,173.846,160.888,173.85z"
							/>
					</g>
				</g>
				<g>
					<g>
						<path style="fill:#263238;" d="M202.044,149.25c0.012-0.043,0.323,0.047,0.888,0.065c0.558,0.02,1.402-0.056,2.275-0.529
							c0.867-0.453,1.697-1.427,1.884-2.715c0.096-0.633,0.026-1.322-0.274-1.945c-0.294-0.625-0.801-1.175-1.424-1.586
							c-1.259-0.845-2.781-0.977-4.099-0.859c-1.333,0.119-2.516,0.447-3.517,0.696c-2,0.54-3.301,0.645-3.306,0.565
							c-0.005-0.038,0.308-0.106,0.865-0.247c0.558-0.14,1.355-0.371,2.343-0.674c0.988-0.293,2.179-0.666,3.57-0.818
							c1.367-0.152,3.034-0.034,4.432,0.902c0.691,0.455,1.266,1.078,1.599,1.803c0.341,0.725,0.409,1.526,0.286,2.237
							c-0.235,1.445-1.216,2.516-2.188,2.966c-0.979,0.473-1.883,0.487-2.462,0.404C202.327,149.434,202.035,149.275,202.044,149.25
							z"/>
					</g>
				</g>
				<g>
					<g>
						<path style="fill:#FFFFFF;" d="M177.417,170.407c0,0,0.154-0.009,0.444-0.006c0.289-0.016,0.719-0.03,1.257-0.15
							c1.072-0.217,2.592-0.848,4.064-2.163c1.487-1.301,2.798-3.28,4.122-5.527c1.344-2.211,2.821-4.817,5.361-6.572
							c2.575-1.718,5.559-2.051,8.091-2.561c2.559-0.47,4.853-1.181,6.418-2.392c1.568-1.196,2.353-2.685,2.603-3.743
							c0.258-1.075,0.111-1.699,0.148-1.696c0,0,0.168,0.617-0.069,1.715c-0.229,1.081-1.007,2.609-2.592,3.841
							c-1.583,1.249-3.907,1.982-6.471,2.463c-2.539,0.52-5.496,0.863-8.011,2.545c-2.486,1.716-3.962,4.291-5.314,6.499
							c-1.333,2.243-2.669,4.235-4.189,5.539c-1.503,1.318-3.055,1.937-4.145,2.132
							C178.034,170.533,177.417,170.407,177.417,170.407z"/>
					</g>
				</g>
				<g>
					<g>
						<path style="fill:#FFFFFF;" d="M178.961,174.34c0,0,0.107-0.079,0.32-0.212c0.215-0.129,0.525-0.332,0.922-0.595
							c0.783-0.538,1.9-1.357,3.108-2.555c1.208-1.193,2.51-2.767,3.611-4.726c1.119-1.938,1.927-4.348,3.632-6.378
							c1.733-2.053,4.25-2.896,6.398-3.474c2.187-0.567,4.172-1.003,5.727-1.7c1.565-0.665,2.677-1.518,3.309-2.222
							c0.638-0.704,0.869-1.189,0.893-1.173c0,0-0.206,0.497-0.833,1.227c-0.621,0.73-1.737,1.614-3.31,2.303
							c-1.563,0.721-3.563,1.176-5.736,1.75c-2.14,0.586-4.604,1.424-6.29,3.425c-1.671,1.984-2.487,4.385-3.623,6.337
							c-1.121,1.972-2.446,3.55-3.676,4.737c-1.23,1.193-2.366,1.998-3.166,2.518C179.439,174.113,178.961,174.34,178.961,174.34z"
							/>
					</g>
				</g>
				<g>
					<g>
						<path style="fill:#FFFFFF;" d="M168.514,181.56c-0.019-0.013,0.216-0.299,0.509-0.889c0.29-0.588,0.606-1.503,0.695-2.678
							c0.108-1.173-0.035-2.579-0.356-4.107c-0.302-1.53-0.775-3.2-0.921-5.02c-0.144-1.806,0.123-3.62,0.993-4.973
							c0.86-1.361,2.176-2.13,3.311-2.474c1.15-0.356,2.149-0.303,2.8-0.188c0.656,0.133,0.987,0.303,0.987,0.303
							c-0.008,0.025-0.35-0.117-1-0.223c-0.646-0.09-1.625-0.117-2.742,0.248c-1.103,0.353-2.372,1.118-3.192,2.435
							c-0.831,1.312-1.09,3.077-0.948,4.856c0.142,1.791,0.607,3.457,0.901,4.998c0.312,1.537,0.442,2.968,0.314,4.157
							c-0.109,1.192-0.454,2.118-0.77,2.702C168.776,181.294,168.514,181.56,168.514,181.56z"/>
					</g>
				</g>
				<g>
					<g>
						<path style="fill:#FFFFFF;" d="M162.023,182.529c-0.013-0.037,0.46,0.107,1.086-0.326c0.633-0.416,1.198-1.386,1.628-2.656
							c0.445-1.269,0.742-2.851,0.91-4.624c0.18-1.772,0.236-3.741,0.562-5.787c0.316-2.042,0.979-3.963,2.026-5.44
							c1.03-1.487,2.453-2.462,3.776-2.811c1.32-0.387,2.467-0.247,3.186-0.02c0.726,0.238,1.061,0.507,1.061,0.507
							c-0.012,0.025-0.363-0.219-1.083-0.429c-0.714-0.2-1.837-0.313-3.121,0.083c-1.288,0.36-2.659,1.317-3.66,2.78
							c-1.016,1.454-1.664,3.34-1.977,5.364c-0.323,2.027-0.386,3.994-0.577,5.773c-0.179,1.78-0.494,3.377-0.962,4.654
							c-0.45,1.274-1.05,2.264-1.721,2.674C162.486,182.699,162.003,182.518,162.023,182.529z"/>
					</g>
				</g>
				<g>
					<g>
						<path style="fill:#E8505B;" d="M176.357,163.717c-0.143,0.019-0.385-0.921-0.541-2.1c-0.113-0.855-0.15-1.6-0.107-1.947
							l0.103,0.096c0.075-0.049-0.003-0.033-0.001-0.017c-0.018,0.012-0.011,0.038-0.013,0.057c0.001,0.017-0.041,0.045-0.092-0.009
							c-0.025-0.034-0.107-0.188,0.12-0.251l0.057-0.016l0.046,0.112c0.132,0.324,0.29,1.053,0.404,1.908
							C176.488,162.727,176.499,163.698,176.357,163.717z"/>
					</g>
				</g>
			</g>
			<g>
				<g>
					<polygon style="fill:#E8505B;" points="166.485,268.208 150.238,348.873 179.781,353.894 190.424,296.014 194.964,353.894 
						222.312,350.014 215.305,264.157 					"/>
				</g>
				<g>
					<g>
						<path style="fill:#263238;" d="M206.727,294.96c0.002,0.036-0.451,0.091-1.27,0.159c-0.924,0.071-2.087,0.159-3.47,0.265
							c-2.929,0.216-6.974,0.534-11.432,0.974c-4.46,0.442-8.489,0.921-11.404,1.283c-1.377,0.167-2.534,0.308-3.454,0.419
							c-0.817,0.093-1.271,0.128-1.277,0.092c-0.006-0.035,0.438-0.138,1.246-0.293c0.808-0.156,1.981-0.357,3.434-0.584
							c2.906-0.455,6.935-0.993,11.404-1.436c4.467-0.44,8.523-0.701,11.462-0.823c1.469-0.062,2.659-0.095,3.482-0.1
							C206.27,294.911,206.725,294.924,206.727,294.96z"/>
					</g>
				</g>
				<g>
					<g>
						<g>
							<path style="fill:#E8505B;" d="M219.173,311.552c0.03,0.363,4.255,6.776,4.255,6.776l-2.128,0.95
								c0,0,4.617,6.38-0.307,14.584L219.173,311.552z"/>
						</g>
						<g>
							<path style="fill:#E8505B;" d="M159.692,306.815c-0.356,0.237-5.222,7.833-5.222,7.833h0.95c0,0-5.676,7.316-1.236,14.637
								L159.692,306.815z"/>
						</g>
					</g>
					<g style="opacity:0.2;">
						<g>
							<path d="M219.173,311.552c0.03,0.363,4.255,6.776,4.255,6.776l-2.128,0.95c0,0,4.617,6.38-0.307,14.584L219.173,311.552z"/>
						</g>
						<g>
							<path d="M159.692,306.815c-0.356,0.237-5.222,7.833-5.222,7.833h0.95c0,0-5.676,7.316-1.236,14.637L159.692,306.815z"/>
						</g>
					</g>
				</g>
				<g>
					<g>
						<path style="fill:#263238;" d="M222.238,344.936c0.004,0.036-0.379,0.111-1.073,0.217c-0.808,0.113-1.79,0.251-2.943,0.412
							c-2.61,0.357-5.981,0.818-9.709,1.328c-3.723,0.55-7.089,1.048-9.695,1.433c-1.153,0.167-2.134,0.309-2.941,0.425
							c-0.696,0.092-1.084,0.126-1.09,0.091c-0.006-0.035,0.369-0.137,1.055-0.29c0.685-0.154,1.681-0.356,2.915-0.589
							c2.467-0.466,5.889-1.045,9.683-1.585c3.793-0.539,7.24-0.938,9.74-1.179c1.25-0.12,2.262-0.205,2.964-0.248
							C221.844,344.907,222.234,344.9,222.238,344.936z"/>
					</g>
				</g>
				<g>
					<g>
						<path style="fill:#263238;" d="M180.238,350.294c-0.008,0.035-0.42-0.029-1.156-0.176c-0.842-0.178-1.881-0.397-3.109-0.656
							c-2.738-0.591-6.302-1.36-10.243-2.21c-3.948-0.822-7.518-1.565-10.26-2.136c-1.227-0.262-2.266-0.483-3.108-0.662
							c-0.732-0.165-1.134-0.273-1.128-0.309c0.006-0.035,0.42,0.005,1.164,0.109c0.744,0.103,1.817,0.274,3.14,0.5
							c2.646,0.452,6.291,1.139,10.3,1.989c4.007,0.85,7.617,1.701,10.219,2.361c1.301,0.33,2.351,0.609,3.073,0.817
							C179.851,350.129,180.246,350.26,180.238,350.294z"/>
					</g>
				</g>
				<g>
					<g>
						<g>
							<path style="fill:#263238;" d="M187.902,298.157c-0.141-0.03-0.183-0.383-0.096-0.788c0.088-0.405,0.273-0.708,0.413-0.678
								c0.141,0.03,0.183,0.383,0.096,0.788C188.228,297.884,188.042,298.187,187.902,298.157z"/>
						</g>
					</g>
					<g>
						<g>
							<path style="fill:#263238;" d="M186.621,304.07c-0.141-0.031-0.111-0.717,0.066-1.533c0.177-0.817,0.434-1.454,0.575-1.423
								c0.141,0.03,0.111,0.717-0.066,1.534C187.019,303.463,186.761,304.1,186.621,304.07z"/>
						</g>
					</g>
					<g>
						<g>
							<path style="fill:#263238;" d="M185.34,309.983c-0.141-0.031-0.111-0.717,0.066-1.533c0.177-0.817,0.434-1.454,0.575-1.423
								c0.141,0.03,0.111,0.717-0.066,1.534C185.737,309.376,185.48,310.013,185.34,309.983z"/>
						</g>
					</g>
					<g>
						<g>
							<path style="fill:#263238;" d="M184.058,315.896c-0.141-0.03-0.111-0.717,0.066-1.533c0.177-0.817,0.434-1.454,0.575-1.423
								c0.141,0.03,0.111,0.717-0.066,1.533C184.456,315.289,184.199,315.926,184.058,315.896z"/>
						</g>
					</g>
					<g>
						<g>
							<path style="fill:#263238;" d="M182.777,321.809c-0.141-0.03-0.111-0.717,0.066-1.533c0.177-0.816,0.434-1.454,0.575-1.423
								c0.14,0.03,0.111,0.717-0.066,1.533C183.175,321.202,182.918,321.839,182.777,321.809z"/>
						</g>
					</g>
					<g>
						<g>
							<path style="fill:#263238;" d="M181.496,327.722c-0.141-0.03-0.111-0.717,0.066-1.533c0.177-0.816,0.434-1.454,0.575-1.423
								c0.141,0.03,0.111,0.717-0.066,1.533C181.894,327.115,181.636,327.752,181.496,327.722z"/>
						</g>
					</g>
					<g>
						<g>
							<path style="fill:#263238;" d="M180.215,333.634c-0.141-0.03-0.111-0.717,0.066-1.533c0.177-0.817,0.434-1.454,0.575-1.423
								c0.141,0.03,0.111,0.717-0.066,1.533C180.613,333.028,180.355,333.665,180.215,333.634z"/>
						</g>
					</g>
					<g>
						<g>
							<path style="fill:#263238;" d="M178.934,339.547c-0.141-0.03-0.111-0.717,0.066-1.533c0.177-0.817,0.434-1.454,0.575-1.423
								c0.141,0.03,0.111,0.717-0.066,1.534C179.331,338.941,179.074,339.578,178.934,339.547z"/>
						</g>
					</g>
					<g>
						<g>
							<path style="fill:#263238;" d="M177.652,345.461c-0.141-0.03-0.111-0.717,0.066-1.533c0.177-0.817,0.434-1.454,0.575-1.423
								c0.141,0.03,0.111,0.717-0.066,1.533C178.05,344.854,177.793,345.491,177.652,345.461z"/>
						</g>
					</g>
					<g>
						<g>
							<path style="fill:#263238;" d="M176.694,349.883c-0.141-0.03-0.183-0.383-0.096-0.788c0.088-0.405,0.273-0.708,0.413-0.678
								c0.141,0.031,0.183,0.383,0.096,0.788C177.02,349.61,176.835,349.913,176.694,349.883z"/>
						</g>
					</g>
				</g>
				<g>
					<g>
						<g>
							<path style="fill:#263238;" d="M213.508,271.633c-0.144,0.009-0.282-0.318-0.309-0.731c-0.027-0.413,0.067-0.756,0.21-0.766
								c0.143-0.01,0.282,0.318,0.309,0.731C213.746,271.28,213.652,271.623,213.508,271.633z"/>
						</g>
					</g>
					<g>
						<g>
							<path style="fill:#263238;" d="M213.911,277.493c-0.144,0.01-0.305-0.638-0.362-1.447c-0.056-0.809,0.014-1.473,0.158-1.483
								c0.143-0.01,0.305,0.638,0.362,1.447C214.125,276.819,214.054,277.483,213.911,277.493z"/>
						</g>
					</g>
					<g>
						<g>
							<path style="fill:#263238;" d="M214.335,283.351c-0.143,0.01-0.308-0.637-0.367-1.445c-0.059-0.809,0.009-1.473,0.152-1.484
								s0.308,0.637,0.367,1.445C214.546,282.676,214.478,283.341,214.335,283.351z"/>
						</g>
					</g>
					<g>
						<g>
							<path style="fill:#263238;" d="M214.781,289.208c-0.143,0.011-0.31-0.635-0.373-1.444c-0.062-0.809,0.003-1.473,0.147-1.484
								c0.143-0.011,0.31,0.635,0.373,1.444C214.99,288.532,214.925,289.197,214.781,289.208z"/>
						</g>
					</g>
					<g>
						<g>
							<path style="fill:#263238;" d="M215.25,295.063c-0.143,0.012-0.313-0.634-0.378-1.443c-0.066-0.809-0.002-1.473,0.141-1.485
								c0.143-0.012,0.313,0.634,0.378,1.443C215.456,294.386,215.393,295.051,215.25,295.063z"/>
						</g>
					</g>
					<g>
						<g>
							<path style="fill:#263238;" d="M215.741,300.916c-0.143,0.012-0.315-0.633-0.383-1.441c-0.069-0.808-0.008-1.473,0.135-1.485
								c0.143-0.012,0.315,0.633,0.383,1.441C215.945,300.239,215.884,300.904,215.741,300.916z"/>
						</g>
					</g>
					<g>
						<g>
							<path style="fill:#263238;" d="M216.253,306.768c-0.143,0.013-0.317-0.632-0.389-1.44c-0.072-0.808-0.013-1.473,0.13-1.486
								c0.143-0.013,0.317,0.632,0.389,1.44C216.455,306.09,216.396,306.755,216.253,306.768z"/>
						</g>
					</g>
					<g>
						<g>
							<path style="fill:#263238;" d="M216.788,312.617c-0.143,0.013-0.32-0.631-0.394-1.438c-0.075-0.808-0.019-1.473,0.124-1.486
								c0.143-0.013,0.32,0.631,0.394,1.438C216.987,311.938,216.931,312.604,216.788,312.617z"/>
						</g>
					</g>
					<g>
						<g>
							<path style="fill:#263238;" d="M217.345,318.464c-0.143,0.014-0.322-0.63-0.4-1.437c-0.078-0.807-0.025-1.473,0.119-1.487
								c0.143-0.014,0.322,0.629,0.4,1.437C217.541,317.785,217.488,318.451,217.345,318.464z"/>
						</g>
					</g>
					<g>
						<g>
							<path style="fill:#263238;" d="M217.924,324.309c-0.143,0.014-0.325-0.628-0.405-1.435c-0.081-0.807-0.03-1.473,0.113-1.487
								c0.143-0.014,0.325,0.628,0.405,1.435C218.117,323.629,218.067,324.295,217.924,324.309z"/>
						</g>
					</g>
					<g>
						<g>
							<path style="fill:#263238;" d="M218.525,330.152c-0.143,0.015-0.327-0.627-0.411-1.434c-0.084-0.807-0.036-1.473,0.107-1.487
								c0.143-0.015,0.327,0.627,0.411,1.434C218.716,329.471,218.668,330.137,218.525,330.152z"/>
						</g>
					</g>
					<g>
						<g>
							<path style="fill:#263238;" d="M219.148,335.993c-0.143,0.015-0.329-0.626-0.416-1.432c-0.087-0.806-0.041-1.473,0.102-1.488
								c0.143-0.015,0.329,0.626,0.416,1.432C219.336,335.311,219.291,335.977,219.148,335.993z"/>
						</g>
					</g>
					<g>
						<g>
							<path style="fill:#263238;" d="M219.793,341.831c-0.143,0.016-0.332-0.625-0.421-1.43c-0.09-0.806-0.047-1.472,0.096-1.488
								s0.332,0.624,0.421,1.431C219.979,341.149,219.936,341.815,219.793,341.831z"/>
						</g>
					</g>
					<g>
						<g>
							<path style="fill:#263238;" d="M220.295,346.24c-0.143,0.016-0.297-0.304-0.344-0.715c-0.047-0.412,0.03-0.759,0.173-0.775
								c0.143-0.016,0.297,0.304,0.344,0.715C220.515,345.877,220.437,346.224,220.295,346.24z"/>
						</g>
					</g>
				</g>
			</g>
			<g>
				<g>
					<polygon style="fill:#F0F0F0;" points="141.224,433.645 143.884,419.731 159.931,422.551 156.059,436.725 					"/>
				</g>
				<g>
					<g>
						<polygon style="fill:#455A64;" points="141.224,433.645 138.752,444.643 155.783,446.747 156.393,435.85 						"/>
					</g>
					<g>
						<g>
							<path style="fill:#263238;" d="M148.913,434.184c0.14,0.023-0.111,2.284-0.56,5.049c-0.45,2.767-0.927,4.99-1.067,4.967
								c-0.14-0.023,0.111-2.283,0.561-5.05C148.295,436.385,148.773,434.161,148.913,434.184z"/>
						</g>
					</g>
					<g>
						<g>
							<path style="fill:#263238;" d="M155.85,445.549c-0.015,0.072-0.954-0.069-2.466-0.31c-1.695-0.275-3.696-0.599-5.908-0.957
								c-2.308-0.384-4.393-0.773-5.892-1.108c-1.499-0.333-2.413-0.599-2.398-0.666c0.016-0.072,0.954,0.069,2.466,0.31
								c1.695,0.275,3.697,0.599,5.909,0.958c2.307,0.384,4.392,0.772,5.891,1.107C154.951,445.216,155.864,445.483,155.85,445.549z
								"/>
						</g>
					</g>
				</g>
				<g>
					<g>
						<path style="fill:#263238;" d="M159.304,424.847c-0.013,0.07-0.912-0.027-2.353-0.255c-1.441-0.227-3.423-0.59-5.605-1.007
							c-2.081-0.398-3.965-0.757-5.589-1.067c-1.43-0.275-2.314-0.46-2.304-0.533c0.01-0.069,0.913-0.013,2.362,0.17
							c1.449,0.182,3.441,0.501,5.628,0.919c2.186,0.418,4.155,0.838,5.577,1.157C158.442,424.551,159.317,424.776,159.304,424.847z
							"/>
					</g>
				</g>
				<g>
					<g>
						<path style="fill:#E8505B;" d="M158.641,426.57c-0.014,0.07-0.908-0.019-2.341-0.221c-1.432-0.202-3.403-0.515-5.574-0.893
							c-2.172-0.378-4.133-0.749-5.549-1.044s-2.288-0.512-2.277-0.583c0.01-0.071,0.9,0.018,2.333,0.219
							c1.432,0.202,3.407,0.516,5.583,0.895c2.175,0.379,4.139,0.75,5.555,1.045C157.787,426.282,158.655,426.499,158.641,426.57z"
							/>
					</g>
				</g>
			</g>
			<g>
				<g>
					<path style="fill:#F0F0F0;" d="M202.051,443.161c-0.187-1.229-1.058-17.962-1.058-17.962l17.809-1.371l0.621,17.311
						L202.051,443.161z"/>
				</g>
				<g>
					<g>
						<g>
							<g>
								<g>
									<g>
										<path style="fill:#455A64;" d="M220.728,442.77l-0.257-1.955l-18.419,2.346l0.78,6.454l1.146-0.069
											c5.096-0.352,25.887-2.15,29.142-3.599C236.75,444.329,220.728,442.77,220.728,442.77z"/>
									</g>
								</g>
							</g>
							<g>
								<g>
									<g>
										<path style="fill:#455A64;" d="M209.463,448.638c-0.453-1.5-1.483-2.817-2.83-3.618c-1.346-0.801-2.92-1.115-4.454-0.797
											l0.638,5.126L209.463,448.638z"/>
									</g>
								</g>
							</g>
						</g>
						<g>
							<g>
								<g>
									<path style="fill:#455A64;" d="M228.59,443.803c0,0,5.659,0.892,5.09,1.877c-0.569,0.985-21.511,3.592-30.849,3.934
										l-0.022-0.413l24.454-2.833C227.263,446.368,227.528,443.982,228.59,443.803z"/>
								</g>
							</g>
						</g>
						<g>
							<g>
								<g>
									<g>
										<path style="fill:#263238;" d="M202.52,449.225c0.001,0.008,0.111,0.006,0.319-0.005c0.274-0.017,0.574-0.036,0.913-0.058
											c0.911-0.074,2.03-0.164,3.352-0.272c2.828-0.249,6.731-0.646,11.031-1.177c4.301-0.533,8.183-1.1,10.987-1.548
											c1.307-0.218,2.415-0.403,3.316-0.554c0.334-0.062,0.629-0.116,0.899-0.166c0.205-0.04,0.312-0.065,0.311-0.073
											c-0.001-0.008-0.111,0.002-0.318,0.028c-0.272,0.037-0.57,0.078-0.906,0.124c-0.904,0.131-2.015,0.293-3.326,0.483
											c-2.809,0.408-6.692,0.949-10.991,1.482c-4.297,0.531-8.195,0.952-11.019,1.242c-1.318,0.135-2.436,0.249-3.344,0.342
											c-0.337,0.037-0.636,0.07-0.909,0.1C202.628,449.201,202.52,449.218,202.52,449.225z"/>
									</g>
								</g>
							</g>
						</g>
						<g>
							<g>
								<g>
									<g>
										<path style="fill:#263238;" d="M227.294,446.653c0.069,0,0.022-0.802,0.424-1.669c0.388-0.873,1.023-1.366,0.978-1.418
											c-0.02-0.054-0.763,0.39-1.182,1.325C227.085,445.822,227.24,446.673,227.294,446.653z"/>
									</g>
								</g>
							</g>
						</g>
						<g>
							<g>
								<g>
									<g>
										<path style="fill:#263238;" d="M221.54,444.581c0.056,0.026,0.276-0.321,0.491-0.776c0.215-0.455,0.344-0.845,0.288-0.871
											c-0.056-0.027-0.275,0.321-0.491,0.776C221.613,444.165,221.484,444.555,221.54,444.581z"/>
									</g>
								</g>
							</g>
						</g>
						<g>
							<g>
								<g>
									<g>
										<path style="fill:#263238;" d="M219.957,443.981c0.047,0.04,0.312-0.189,0.593-0.512c0.281-0.323,0.47-0.618,0.424-0.659
											c-0.047-0.041-0.312,0.189-0.593,0.512C220.1,443.645,219.91,443.94,219.957,443.981z"/>
									</g>
								</g>
							</g>
						</g>
						<g>
							<g>
								<g>
									<g>
										<path style="fill:#263238;" d="M218.802,442.367c0.007,0.062,0.442,0.063,0.972,0.003c0.53-0.06,0.954-0.159,0.947-0.22
											c-0.007-0.061-0.442-0.063-0.972-0.003C219.219,442.207,218.795,442.305,218.802,442.367z"/>
									</g>
								</g>
							</g>
						</g>
						<g>
							<g>
								<g>
									<g>
										<path style="fill:#263238;" d="M218.328,441.186c-0.014,0.057,0.479,0.21,1.107,0.178
											c0.628-0.029,1.104-0.229,1.084-0.284c-0.018-0.062-0.499,0.034-1.095,0.061
											C218.828,441.171,218.34,441.122,218.328,441.186z"/>
									</g>
								</g>
							</g>
						</g>
						<g>
							<g>
								<g>
									<g>
										<path style="fill:#263238;" d="M221.963,442.904c0.002,0.025,0.461,0.024,1.178-0.154c0.357-0.089,0.776-0.228,1.22-0.433
											c0.219-0.11,0.452-0.202,0.681-0.385c0.107-0.092,0.223-0.218,0.246-0.402c0.027-0.183-0.092-0.369-0.237-0.449
											c-1.199-0.443-2.249,0.331-2.594,0.965c-0.193,0.326-0.263,0.629-0.287,0.834c-0.022,0.208-0.004,0.322,0.009,0.322
											c0.044,0.01,0.022-0.474,0.412-1.072c0.192-0.293,0.502-0.594,0.925-0.78c0.401-0.175,0.989-0.282,1.417-0.079
											c0.204,0.115,0.159,0.345-0.034,0.494c-0.178,0.149-0.42,0.257-0.627,0.366c-0.427,0.209-0.83,0.361-1.174,0.467
											C222.407,442.81,221.958,442.867,221.963,442.904z"/>
									</g>
								</g>
							</g>
						</g>
						<g>
							<g>
								<g>
									<g>
										<path style="fill:#263238;" d="M222.275,442.924c0.018,0.011,0.155-0.312,0.034-0.835
											c-0.061-0.257-0.195-0.553-0.429-0.821c-0.241-0.236-0.553-0.563-1.056-0.479c-0.269,0.069-0.364,0.397-0.296,0.589
											c0.047,0.204,0.162,0.369,0.266,0.502c0.212,0.273,0.44,0.486,0.645,0.644c0.415,0.315,0.724,0.417,0.734,0.393
											c0.017-0.031-0.261-0.182-0.633-0.515c-0.185-0.166-0.39-0.381-0.582-0.646c-0.193-0.229-0.359-0.663-0.07-0.753
											c0.292-0.065,0.629,0.191,0.839,0.404c0.217,0.232,0.354,0.494,0.429,0.725
											C222.307,442.601,222.235,442.92,222.275,442.924z"/>
									</g>
								</g>
							</g>
						</g>
						<g>
							<g>
								<g>
									<g>
										<path style="fill:#263238;" d="M202.27,444.16c0.009,0.041,0.519-0.115,1.36-0.121c0.833-0.011,2.017,0.184,3.108,0.85
											c1.091,0.669,1.804,1.634,2.173,2.381c0.378,0.751,0.471,1.276,0.511,1.266c0.013-0.003,0.004-0.135-0.046-0.37
											c-0.049-0.235-0.148-0.57-0.323-0.964c-0.342-0.784-1.061-1.806-2.199-2.504c-1.138-0.695-2.376-0.87-3.23-0.818
											c-0.43,0.023-0.774,0.088-1.006,0.151C202.388,444.095,202.266,444.147,202.27,444.16z"/>
									</g>
								</g>
							</g>
						</g>
						<g>
							<g>
								<g>
									<g>
										<path style="fill:#263238;" d="M211.549,446.563c-0.001,0.059,1.219,0.106,2.711-0.068
											c1.493-0.169,2.67-0.492,2.656-0.549c-0.014-0.064-1.203,0.159-2.681,0.326
											C212.756,446.444,211.548,446.497,211.549,446.563z"/>
									</g>
								</g>
							</g>
						</g>
						<g>
							<g>
								<g>
									<g>
										<path style="fill:#263238;" d="M207.953,447.005c-0.039,0.051,0.13,0.242,0.286,0.501c0.16,0.258,0.254,0.495,0.316,0.483
											c0.059-0.008,0.058-0.302-0.125-0.6C208.248,447.09,207.987,446.956,207.953,447.005z"/>
									</g>
								</g>
							</g>
						</g>
						<g>
							<g>
								<g>
									<g>
										<path style="fill:#263238;" d="M206.389,445.487c-0.038,0.049,0.104,0.225,0.317,0.393
											c0.214,0.169,0.418,0.266,0.456,0.218c0.038-0.048-0.104-0.225-0.318-0.394
											C206.631,445.536,206.427,445.439,206.389,445.487z"/>
									</g>
								</g>
							</g>
						</g>
						<g>
							<g>
								<g>
									<g>
										<path style="fill:#263238;" d="M204.354,444.958c0.021,0.061,0.264,0.028,0.545,0.09c0.283,0.055,0.493,0.181,0.536,0.133
											c0.045-0.04-0.142-0.282-0.491-0.352C204.596,444.756,204.328,444.904,204.354,444.958z"/>
									</g>
								</g>
							</g>
						</g>
						<g>
							<g>
								<g>
									<g>
										<path style="fill:#263238;" d="M202.929,444.767c-0.015,0.06,0.102,0.141,0.262,0.181c0.16,0.04,0.301,0.024,0.316-0.036
											c0.015-0.06-0.102-0.141-0.261-0.181C203.085,444.691,202.944,444.707,202.929,444.767z"/>
									</g>
								</g>
							</g>
						</g>
					</g>
				</g>
				<g>
					<g>
						<path style="fill:#263238;" d="M218.573,426.775c0.007,0.144-3.943,0.457-8.821,0.7c-4.88,0.243-8.841,0.323-8.848,0.18
							c-0.007-0.144,3.942-0.457,8.822-0.7C214.605,426.712,218.566,426.632,218.573,426.775z"/>
					</g>
				</g>
				<g>
					<g>
						<path style="fill:#E8505B;" d="M218.574,428.956c0.008,0.144-3.877,0.489-8.678,0.772c-4.802,0.283-8.701,0.396-8.709,0.252
							c-0.008-0.144,3.876-0.489,8.678-0.772C214.666,428.926,218.565,428.813,218.574,428.956z"/>
					</g>
				</g>
			</g>
			<g>
				<g>
					<g>
						<path style="fill:#455A64;" d="M163.977,232.729l1.147,22.028l0.186,19.281l50.748-3.714l-2.181-35.478
							c-0.333-8.297-0.488-16.947-0.693-24.607c3.466-1.313,35.694-13.512,37.907-13.828c2.339-0.334,23.438-39.363,23.438-39.363
							c0.668-4.677-12.028-7.685-12.028-7.685s-19.712,29.736-21.383,31.406c-1.671,1.671-32.544,4.915-32.545,4.915
							c-9.478-2.14-33.479-2.482-39.269,1.781C169.306,187.467,156.176,193.947,163.977,232.729z"/>
					</g>
					<g>
						<g>
							<path style="fill:#263238;" d="M243.894,187.464c-0.129,0.073-0.944-1.372-1.614-3.262c-0.67-1.887-1.265-3.371-1.161-3.432
								c0.129-0.073,0.943,1.372,1.614,3.262C243.404,185.919,243.999,187.404,243.894,187.464z"/>
						</g>
					</g>
					<g>
						<g>
							<path style="fill:#263238;" d="M246.104,184.934c-0.088,0.085-1.218-0.801-2.642-1.891c-1.427-1.092-2.448-2.17-2.343-2.272
								c0.088-0.085,1.217,0.8,2.642,1.891C245.188,183.753,246.209,184.832,246.104,184.934z"/>
						</g>
					</g>
					<g>
						<g>
							<path style="fill:#263238;" d="M213.636,185.266c0.009,0.094-1.19,0.092-2.972,0.698c-1.764,0.585-4.117,1.926-5.784,4.254
								c-1.66,2.334-2.162,4.997-2.14,6.854c0.007,1.882,0.399,3.015,0.307,3.037c-0.028,0.009-0.15-0.263-0.299-0.779
								c-0.151-0.515-0.302-1.285-0.35-2.25c-0.111-1.909,0.351-4.7,2.089-7.143c1.744-2.437,4.233-3.782,6.074-4.299
								c0.928-0.269,1.705-0.377,2.242-0.401C213.339,185.21,213.636,185.237,213.636,185.266z"/>
						</g>
					</g>
					<g>
						<g>
							<path style="fill:#263238;" d="M198.479,184.558c0.001,0.134-3.615,0.27-8.075,0.304c-4.462,0.034-8.079-0.046-8.08-0.18
								c-0.001-0.134,3.614-0.27,8.076-0.304C194.86,184.344,198.478,184.424,198.479,184.558z"/>
						</g>
					</g>
				</g>
				<g>
					<g>
						<g>
							<path style="fill:#263238;" d="M190.72,203.459c0.018-0.007,0.133,0.26,0.357,0.761c0.235,0.487,0.551,1.264,1.286,1.977
								c0.369,0.344,0.866,0.657,1.462,0.774c0.598,0.125,1.264-0.055,1.829-0.503c0.581-0.426,1.087-1.058,1.83-1.538
								c0.756-0.469,1.746-0.637,2.701-0.421c0.95,0.209,1.891,0.743,2.547,1.6c0.658,0.861,0.931,2.02,0.807,3.157
								c-0.123,1.138-0.611,2.279-1.446,3.177c-0.847,0.899-1.954,1.473-2.999,2.106c-1.044,0.619-2.083,1.37-2.549,2.507
								c-0.467,1.139-0.37,2.474-0.478,3.835c-0.053,0.682-0.177,1.392-0.475,2.059c-0.299,0.663-0.768,1.245-1.336,1.708
								c-1.126,0.939-2.767,1.304-4.214,0.849c-0.722-0.213-1.394-0.588-1.938-1.102c-0.552-0.518-0.921-1.165-1.246-1.783
								c-0.628-1.217-1.201-2.57-2.415-2.912c-1.194-0.343-2.473,0.342-3.851,0.312c-1.415-0.031-2.663-0.964-3.194-2.176
								c-0.548-1.241-0.227-2.684,0.564-3.637c0.388-0.487,0.929-0.855,1.485-1.06c0.554-0.217,1.11-0.33,1.634-0.472
								c0.524-0.138,1.022-0.303,1.423-0.581c0.393-0.282,0.663-0.692,0.758-1.149c0.178-0.933-0.175-1.892-0.337-2.817
								c-0.423-1.929,0.467-3.738,1.63-4.697c1.186-1.016,2.631-1.162,3.664-0.989c1.061,0.175,1.787,0.634,2.214,0.981
								c0.428,0.358,0.582,0.613,0.582,0.613c-0.02,0.019-0.207-0.207-0.646-0.529c-0.438-0.313-1.157-0.727-2.179-0.864
								c-0.999-0.135-2.353,0.038-3.444,1.009c-1.077,0.927-1.878,2.617-1.459,4.406c0.159,0.897,0.557,1.856,0.369,2.968
								c-0.105,0.549-0.438,1.066-0.908,1.406c-0.473,0.334-1.019,0.512-1.553,0.658c-1.064,0.285-2.198,0.506-2.877,1.404
								c-0.69,0.841-0.954,2.109-0.48,3.156c0.458,1.044,1.566,1.857,2.765,1.872c1.207,0.054,2.495-0.687,3.983-0.305
								c0.726,0.199,1.31,0.741,1.711,1.326c0.407,0.591,0.701,1.227,1.02,1.835c0.319,0.607,0.661,1.195,1.143,1.645
								c0.482,0.455,1.082,0.79,1.727,0.981c1.296,0.404,2.727,0.086,3.743-0.752c0.508-0.413,0.928-0.933,1.193-1.519
								c0.263-0.585,0.383-1.232,0.435-1.887c0.115-1.303,0.001-2.691,0.527-3.983c0.544-1.303,1.707-2.108,2.762-2.727
								c1.067-0.635,2.136-1.192,2.911-2.007c0.769-0.815,1.23-1.869,1.351-2.911c0.123-1.042-0.12-2.097-0.699-2.869
								c-0.58-0.777-1.439-1.281-2.305-1.482c-0.872-0.208-1.762-0.066-2.447,0.343c-0.687,0.425-1.208,1.046-1.832,1.491
								c-0.606,0.47-1.395,0.672-2.05,0.512c-0.656-0.145-1.173-0.496-1.554-0.871c-0.753-0.779-1.035-1.579-1.243-2.083
								c-0.098-0.258-0.166-0.458-0.209-0.592C190.729,203.533,190.712,203.462,190.72,203.459z"/>
						</g>
					</g>
					<g>
						<g>
							<path style="fill:#263238;" d="M215.097,248.303c0.003,0.013-0.144,0.064-0.434,0.098c-0.289,0.034-0.728,0.046-1.278-0.065
								c-0.546-0.112-1.209-0.354-1.851-0.841c-0.66-0.474-1.186-1.266-1.633-2.135c-0.465-0.849-0.896-1.886-1.784-2.489
								c-0.908-0.641-2.134-0.295-3.408-0.037c-0.642,0.12-1.388,0.171-2.085-0.074c-0.692-0.231-1.32-0.68-1.776-1.285
								c-0.459-0.598-0.731-1.381-0.695-2.17c0.028-0.786,0.322-1.562,0.825-2.189c0.494-0.642,1.252-1.044,1.966-1.246
								c0.716-0.221,1.423-0.341,2.036-0.599c0.613-0.244,1.087-0.688,1.249-1.274c0.167-0.581,0.062-1.228-0.069-1.847
								c-0.128-0.626-0.305-1.246-0.333-1.897c-0.037-0.647,0.079-1.274,0.286-1.838c0.41-1.135,1.197-2.016,2.073-2.535
								c0.883-0.525,1.837-0.669,2.631-0.607c0.8,0.06,1.463,0.294,1.952,0.563c0.492,0.269,0.824,0.554,1.024,0.766
								c0.199,0.214,0.284,0.343,0.272,0.352c-0.039,0.044-0.415-0.469-1.387-0.938c-0.482-0.23-1.122-0.423-1.877-0.453
								c-0.75-0.032-1.628,0.131-2.424,0.63c-0.792,0.495-1.501,1.322-1.858,2.366c-0.181,0.518-0.277,1.088-0.235,1.667
								c0.031,0.579,0.206,1.183,0.345,1.821c0.136,0.634,0.279,1.346,0.078,2.086c-0.19,0.746-0.836,1.337-1.527,1.606
								c-1.359,0.56-2.934,0.546-3.796,1.703c-0.892,1.078-0.957,2.695-0.128,3.725c0.39,0.523,0.936,0.918,1.529,1.12
								c0.593,0.213,1.219,0.18,1.843,0.072c0.623-0.104,1.245-0.271,1.891-0.307c0.643-0.053,1.317,0.104,1.836,0.456
								c1.035,0.744,1.425,1.835,1.874,2.681c0.426,0.876,0.887,1.61,1.486,2.075c0.584,0.478,1.202,0.736,1.717,0.873
								C214.478,248.4,215.096,248.244,215.097,248.303z"/>
						</g>
					</g>
					<g>
						<g>
							<path style="fill:#263238;" d="M168.164,188.046c0.038-0.058,0.43,0.542,1.511,0.883c0.534,0.162,1.254,0.116,1.9-0.356
								c0.667-0.433,1.218-1.229,2.18-1.774c0.966-0.533,2.289-0.557,3.446-0.012c0.579,0.269,1.128,0.668,1.565,1.201
								c0.43,0.54,0.727,1.208,0.846,1.92c0.244,1.428-0.177,2.999-1.142,4.227c-0.997,1.253-2.494,1.898-3.786,2.736
								c-0.65,0.42-1.245,0.893-1.661,1.485c-0.423,0.586-0.624,1.287-0.716,2.002c-0.181,1.428-0.015,2.934-0.537,4.305
								c-0.527,1.362-1.659,2.328-2.865,2.737c-1.223,0.423-2.486,0.231-3.448-0.233c-0.95-0.486-1.73-1.174-1.988-2.046
								c-0.215-0.858-0.032-1.577-0.04-2.14c0.031-0.572-0.163-0.975-0.399-1.152c-0.224-0.187-0.39-0.232-0.376-0.26
								c0,0,0.173,0.002,0.44,0.177c0.283,0.158,0.545,0.634,0.538,1.232c0.035,0.587-0.104,1.313,0.117,2.06
								c0.227,0.721,0.981,1.376,1.865,1.795c0.9,0.409,2.055,0.557,3.149,0.159c1.086-0.385,2.105-1.283,2.559-2.499
								c0.463-1.229,0.304-2.681,0.48-4.2c0.092-0.757,0.316-1.564,0.798-2.235c0.473-0.675,1.127-1.188,1.802-1.624
								c1.346-0.863,2.782-1.497,3.67-2.617c0.883-1.109,1.277-2.549,1.068-3.829c-0.102-0.64-0.359-1.233-0.731-1.713
								c-0.381-0.477-0.871-0.844-1.391-1.096c-1.042-0.511-2.228-0.505-3.091-0.054c-0.869,0.456-1.462,1.243-2.192,1.691
								c-0.719,0.494-1.562,0.516-2.119,0.307c-0.572-0.195-0.937-0.497-1.157-0.711
								C168.239,188.195,168.153,188.055,168.164,188.046z"/>
						</g>
					</g>
					<g>
						<g>
							<path style="fill:#263238;" d="M231.273,188.728c0.037-0.015,0.199,0.349,0.507,0.987c0.32,0.608,0.784,1.602,1.862,2.186
								c0.525,0.284,1.209,0.423,1.844,0.162c0.646-0.245,1.182-0.837,1.824-1.407c0.618-0.595,1.562-1.072,2.549-1.045
								c0.98,0,1.982,0.352,2.784,1.007c0.812,0.652,1.314,1.62,1.459,2.576c0.159,0.963-0.007,1.909-0.321,2.728
								c-0.328,0.819-0.824,1.515-1.403,2.043c-0.59,0.522-1.239,0.859-1.827,1.117c-1.188,0.495-2.116,0.896-2.631,1.376
								c-0.517,0.466-0.694,0.831-0.738,0.804c-0.016-0.008,0.02-0.101,0.104-0.273c0.084-0.171,0.242-0.411,0.495-0.678
								c0.498-0.554,1.471-1.037,2.615-1.563c0.568-0.274,1.164-0.613,1.689-1.1c0.518-0.497,0.96-1.145,1.249-1.899
								c0.275-0.754,0.415-1.616,0.265-2.472c-0.141-0.855-0.572-1.679-1.286-2.256c-0.706-0.579-1.6-0.894-2.453-0.9
								c-0.871-0.019-1.628,0.344-2.235,0.897c-0.622,0.528-1.201,1.165-1.986,1.448c-0.785,0.299-1.605,0.095-2.173-0.244
								c-1.185-0.708-1.598-1.788-1.87-2.426C231.339,189.124,231.243,188.74,231.273,188.728z"/>
						</g>
					</g>
					<g>
						<g>
							<path style="fill:#263238;" d="M257.167,157.639c0.034,0.021-0.161,0.367-0.489,0.996c-0.297,0.62-0.817,1.586-0.642,2.799
								c0.086,0.59,0.383,1.223,0.971,1.576c0.582,0.372,1.377,0.449,2.217,0.623c0.846,0.141,1.793,0.613,2.36,1.421
								c0.585,0.787,0.901,1.8,0.854,2.835c-0.038,1.041-0.515,2.021-1.195,2.708c-0.677,0.703-1.536,1.134-2.38,1.371
								c-0.853,0.226-1.707,0.243-2.476,0.094c-0.771-0.162-1.429-0.48-1.987-0.798c-1.106-0.658-1.982-1.162-2.675-1.289
								c-0.682-0.136-1.081-0.061-1.086-0.112c-0.003-0.018,0.093-0.045,0.281-0.08c0.188-0.035,0.474-0.051,0.839-0.008
								c0.742,0.069,1.711,0.561,2.815,1.164c0.559,0.292,1.187,0.568,1.891,0.698c0.707,0.119,1.492,0.087,2.269-0.132
								c0.769-0.229,1.544-0.632,2.142-1.263c0.602-0.624,1.005-1.461,1.042-2.378c0.043-0.913-0.238-1.817-0.743-2.505
								c-0.505-0.71-1.248-1.101-2.054-1.257c-0.795-0.184-1.651-0.268-2.347-0.728c-0.709-0.452-1.034-1.231-1.102-1.889
								c-0.14-1.374,0.481-2.349,0.83-2.948C256.889,157.927,257.14,157.622,257.167,157.639z"/>
						</g>
					</g>
					<g>
						<g>
							<path style="fill:#263238;" d="M226.185,205.346c-0.016,0.028-0.374-0.143-1.053-0.502l0.016,0.007
								c-0.561-0.189-1.384-0.104-2.391,0.148c-0.506,0.111-1.078,0.246-1.727,0.229c-0.651-0.028-1.338-0.264-1.927-0.706
								c-0.588-0.438-1.091-1.088-1.311-1.887c-0.222-0.798-0.125-1.704,0.272-2.493c0.378-0.793,1.113-1.479,1.993-1.785
								c0.857-0.326,1.765-0.436,2.546-0.791c0.496-0.23,0.893-0.591,1.068-1.07c0.187-0.47,0.153-1.015,0.066-1.543
								c-0.185-1.048-0.573-2.156-0.381-3.25c0.331-2.168,2.015-3.679,3.599-3.995c1.604-0.342,2.91,0.18,3.634,0.655
								c0.375,0.238,0.617,0.488,0.776,0.654c0.148,0.18,0.217,0.278,0.204,0.29c-0.037,0.037-0.34-0.354-1.084-0.77
								c-0.723-0.404-1.978-0.833-3.443-0.471c-1.434,0.329-2.937,1.746-3.209,3.705c-0.163,0.968,0.196,1.965,0.408,3.097
								c0.094,0.561,0.153,1.199-0.085,1.814c-0.219,0.619-0.757,1.097-1.332,1.357c-0.895,0.399-1.803,0.5-2.584,0.8
								c-0.783,0.272-1.385,0.833-1.732,1.526c-0.353,0.684-0.444,1.469-0.264,2.151c0.177,0.686,0.606,1.269,1.119,1.668
								c0.515,0.403,1.117,0.626,1.689,0.668c0.579,0.033,1.133-0.073,1.643-0.166c1.011-0.214,1.926-0.265,2.515-0.009l0.015,0.006
								l0.002,0.001C225.875,205.093,226.202,205.318,226.185,205.346z"/>
						</g>
					</g>
					<g>
						<g>
							<path style="fill:#263238;" d="M192.728,272.032c-0.01,0.005-0.075-0.186,0.036-0.525c0.106-0.332,0.397-0.791,0.956-1.166
								c0.566-0.372,1.392-0.542,2.31-0.58c0.913-0.064,1.98,0.002,3.013-0.392c1.022-0.4,1.998-1.284,2.454-2.494
								c0.452-1.198,0.293-2.73-0.55-3.907c-0.834-1.208-2.391-1.746-3.835-2.615c-0.717-0.442-1.441-1.041-1.854-1.865
								c-0.435-0.807-0.583-1.718-0.68-2.598c-0.169-1.756-0.191-3.503-1.174-4.791c-0.909-1.29-2.406-2.111-3.843-2.028
								c-1.432,0.079-2.68,1.045-3.218,2.192c-0.282,0.576-0.368,1.201-0.28,1.788c0.088,0.593,0.304,1.159,0.447,1.73
								c0.148,0.566,0.216,1.169,0.058,1.713c-0.155,0.544-0.501,0.967-0.872,1.266c-0.756,0.609-1.608,0.754-2.25,0.795
								c-0.655,0.035-1.157-0.022-1.494-0.058c-0.338-0.04-0.514-0.073-0.513-0.091c0-0.058,0.723,0.046,1.99-0.053
								c0.622-0.069,1.411-0.241,2.081-0.817c0.329-0.282,0.619-0.665,0.738-1.129c0.122-0.465,0.058-0.991-0.095-1.531
								c-0.147-0.543-0.378-1.11-0.488-1.762c-0.112-0.657-0.023-1.383,0.286-2.032c0.594-1.294,1.942-2.375,3.582-2.489
								c1.634-0.104,3.284,0.803,4.286,2.211c0.513,0.701,0.842,1.558,0.989,2.425c0.157,0.867,0.196,1.744,0.287,2.607
								c0.094,0.858,0.237,1.702,0.62,2.41c0.36,0.723,0.985,1.249,1.665,1.675c1.353,0.837,3.009,1.399,3.957,2.771
								c0.927,1.323,1.081,3.008,0.562,4.337c-0.525,1.334-1.603,2.27-2.726,2.684c-1.153,0.407-2.233,0.299-3.133,0.339
								c-0.907,0.011-1.679,0.145-2.216,0.462c-0.533,0.321-0.835,0.732-0.964,1.031
								C192.728,271.847,192.753,272.032,192.728,272.032z"/>
						</g>
					</g>
					<g>
						<g>
							<path style="fill:#263238;" d="M185.577,272.555c-0.029,0.003-0.096-0.276-0.057-0.786c0.009-0.506,0.297-1.232,0.243-2.049
								c-0.042-0.397-0.235-0.833-0.57-1.16c-0.332-0.335-0.826-0.54-1.375-0.688c-0.552-0.15-1.164-0.244-1.803-0.426
								c-0.645-0.182-1.292-0.517-1.825-0.996c-1.08-0.951-1.668-2.304-1.68-3.551c-0.019-1.26,0.503-2.32,1.089-3.024
								c0.596-0.713,1.255-1.104,1.723-1.3c0.475-0.191,0.76-0.214,0.766-0.187c0.054,0.092-1.135,0.323-2.199,1.714
								c-0.509,0.682-0.942,1.666-0.899,2.784c0.035,1.109,0.577,2.321,1.545,3.173c0.955,0.911,2.247,1.022,3.414,1.351
								c0.578,0.17,1.153,0.418,1.553,0.848c0.4,0.423,0.599,0.946,0.628,1.433c0.022,0.488-0.095,0.895-0.185,1.236
								c-0.095,0.343-0.174,0.631-0.224,0.871C185.624,272.277,185.619,272.554,185.577,272.555z"/>
						</g>
					</g>
					<g>
						<g>
							<path style="fill:#263238;" d="M163.369,229.535c0,0,0.191-0.28,0.755-0.553c0.278-0.132,0.684-0.234,1.143-0.129
								c0.46,0.099,0.931,0.388,1.316,0.862l0.007,0.009l0.009,0.022c0.388,0.912,0.791,2.128,1.837,2.95
								c0.515,0.392,1.21,0.668,1.9,0.538c0.698-0.125,1.286-0.675,1.9-1.252c0.594-0.58,1.422-1.192,2.408-1.268
								c0.964-0.104,1.98,0.149,2.828,0.712c0.853,0.55,1.527,1.466,1.763,2.509c0.251,1.04,0.13,2.164-0.286,3.171
								c-0.32,0.777-0.809,1.478-1.423,2.023c-0.609,0.545-1.288,0.953-1.942,1.336c-1.303,0.749-2.592,1.491-3.184,2.683
								c-0.596,1.182-0.499,2.545-0.599,3.78c-0.056,1.243-0.406,2.479-1.14,3.311c-0.708,0.841-1.614,1.339-2.453,1.541
								c-0.822,0.207-1.659,0.164-2.162-0.243c-0.487-0.384-0.726-0.784-0.913-1.03c-0.178-0.254-0.265-0.393-0.251-0.404
								c0.014-0.011,0.128,0.106,0.333,0.339c0.21,0.223,0.486,0.605,0.947,0.929c0.458,0.334,1.191,0.347,1.973,0.128
								c0.776-0.214,1.605-0.702,2.241-1.492c0.657-0.786,0.951-1.884,0.994-3.105c0.088-1.203-0.055-2.609,0.601-3.968
								c1.403-2.787,5.38-2.968,6.497-6.025c0.378-0.917,0.486-1.932,0.265-2.853c-0.21-0.928-0.781-1.71-1.539-2.211
								c-0.75-0.507-1.658-0.736-2.497-0.652c-0.861,0.063-1.544,0.551-2.156,1.124c-0.609,0.552-1.268,1.182-2.131,1.328
								c-0.856,0.143-1.641-0.206-2.204-0.652c-1.147-0.956-1.502-2.226-1.863-3.149l0.016,0.03
								c-0.317-0.42-0.744-0.713-1.141-0.814c-0.401-0.114-0.769-0.047-1.039,0.057
								C163.631,229.331,163.394,229.572,163.369,229.535z"/>
						</g>
					</g>
				</g>
			</g>
		</g>
		<g>
			<path style="fill:#B78876;" d="M252.61,142.959c1.105,0.261,2.063,1.08,2.493,2.131c1.769-1.41,4.053-2.158,6.313-2.069
				c-0.167,1.312-1.079,2.417-2.118,3.235c-1.038,0.819-2.229,1.427-3.275,2.236c-1.046,0.809-1.977,1.892-2.182,3.198"/>
		</g>
		<g>
			<g>
				<g>
					<g>
						<g>
							<g>
								<g>
									<path style="fill:#E8505B;" d="M575.474,446.099l-0.828-8.134l15.227-1.648l1.337,11.888l-0.938,0.163
										c-4.177,0.688-21.284,3.204-24.185,2.657C562.852,450.413,575.474,446.099,575.474,446.099z"/>
								</g>
							</g>
						</g>
						<g>
							<g>
								<g>
									<path style="fill:#E8505B;" d="M585.677,448.682c0.079-1.296,0.659-2.554,1.591-3.457c0.933-0.903,2.142-1.456,3.44-1.492
										l0.464,4.255L585.677,448.682z"/>
								</g>
							</g>
						</g>
					</g>
					<g>
						<g>
							<g>
								<path style="fill:#E8505B;" d="M569.331,448.432c0,0-4.393,1.799-3.746,2.484c0.646,0.685,18.031-1.207,25.626-2.713
									l-0.061-0.338l-20.259,2.38C570.891,450.247,570.222,448.373,569.331,448.432z"/>
							</g>
						</g>
					</g>
					<g>
						<g>
							<g>
								<g>
									<path style="fill:#263238;" d="M591.387,447.831c0.001,0.006-0.088,0.026-0.259,0.057c-0.224,0.038-0.47,0.08-0.747,0.127
										c-0.748,0.114-1.669,0.255-2.754,0.42c-2.328,0.339-5.551,0.763-9.12,1.155c-3.57,0.391-6.808,0.674-9.155,0.848
										c-1.096,0.073-2.025,0.136-2.78,0.186c-0.281,0.014-0.529,0.026-0.757,0.038c-0.173,0.007-0.264,0.007-0.265,0.001
										c0-0.006,0.09-0.019,0.262-0.038c0.227-0.022,0.474-0.046,0.754-0.072c0.754-0.067,1.681-0.148,2.774-0.245
										c2.343-0.207,5.577-0.511,9.145-0.902c3.567-0.392,6.79-0.796,9.122-1.101c1.089-0.143,2.011-0.264,2.762-0.362
										c0.279-0.034,0.526-0.065,0.752-0.093C591.295,447.832,591.386,447.825,591.387,447.831z"/>
								</g>
							</g>
						</g>
					</g>
					<g>
						<g>
							<g>
								<g>
									<path style="fill:#263238;" d="M570.92,450.483c-0.055,0.013-0.171-0.643-0.661-1.265c-0.479-0.63-1.085-0.906-1.059-0.957
										c0.006-0.047,0.69,0.169,1.205,0.843C570.93,449.773,570.967,450.489,570.92,450.483z"/>
								</g>
							</g>
						</g>
					</g>
					<g>
						<g>
							<g>
								<g>
									<path style="fill:#263238;" d="M575.165,447.715c-0.04,0.032-0.283-0.206-0.544-0.532c-0.26-0.326-0.439-0.616-0.399-0.648
										c0.04-0.032,0.283,0.206,0.544,0.532C575.026,447.393,575.205,447.683,575.165,447.715z"/>
								</g>
							</g>
						</g>
					</g>
					<g>
						<g>
							<g>
								<g>
									<path style="fill:#263238;" d="M576.327,446.928c-0.03,0.042-0.288-0.093-0.576-0.3c-0.288-0.207-0.497-0.409-0.467-0.45
										c0.03-0.042,0.288,0.093,0.576,0.3C576.147,446.685,576.357,446.887,576.327,446.928z"/>
								</g>
							</g>
						</g>
					</g>
					<g>
						<g>
							<g>
								<g>
									<path style="fill:#263238;" d="M576.95,445.407c0.006,0.051-0.345,0.135-0.783,0.188c-0.439,0.053-0.799,0.054-0.806,0.003
										c-0.006-0.051,0.345-0.135,0.783-0.188C576.583,445.357,576.943,445.356,576.95,445.407z"/>
								</g>
							</g>
						</g>
					</g>
					<g>
						<g>
							<g>
								<g>
									<path style="fill:#263238;" d="M577.107,444.364c0.022,0.044-0.346,0.261-0.858,0.354
										c-0.512,0.096-0.934,0.026-0.929-0.023c0.003-0.053,0.409-0.068,0.895-0.16
										C576.701,444.447,577.085,444.315,577.107,444.364z"/>
								</g>
							</g>
						</g>
					</g>
					<g>
						<g>
							<g>
								<g>
									<path style="fill:#263238;" d="M574.504,446.443c0.003,0.021-0.367,0.107-0.979,0.1c-0.305-0.004-0.669-0.036-1.066-0.116
										c-0.198-0.047-0.403-0.076-0.623-0.181c-0.104-0.054-0.221-0.133-0.275-0.277c-0.056-0.142,0.004-0.316,0.106-0.407
										c0.883-0.586,1.876-0.162,2.276,0.283c0.218,0.226,0.332,0.457,0.39,0.618c0.057,0.163,0.065,0.259,0.054,0.262
										c-0.033,0.016-0.108-0.378-0.537-0.786c-0.211-0.2-0.518-0.383-0.895-0.452c-0.357-0.065-0.851-0.039-1.157,0.206
										c-0.143,0.132-0.062,0.308,0.122,0.392c0.172,0.086,0.388,0.127,0.576,0.175c0.384,0.087,0.738,0.132,1.036,0.152
										C574.127,446.452,574.501,446.412,574.504,446.443z"/>
								</g>
							</g>
						</g>
					</g>
					<g>
						<g>
							<g>
								<g>
									<path style="fill:#263238;" d="M574.255,446.519c-0.013,0.012-0.184-0.222-0.187-0.667c0-0.219,0.052-0.483,0.189-0.744
										c0.149-0.236,0.339-0.559,0.76-0.587c0.23,0.004,0.369,0.25,0.351,0.419c0.001,0.173-0.06,0.329-0.119,0.455
										c-0.119,0.26-0.262,0.476-0.398,0.642c-0.274,0.333-0.504,0.474-0.517,0.457c-0.02-0.022,0.176-0.197,0.412-0.536
										c0.117-0.169,0.242-0.382,0.346-0.632c0.112-0.221,0.163-0.603-0.087-0.621c-0.247,0.003-0.471,0.274-0.599,0.486
										c-0.131,0.228-0.191,0.466-0.208,0.666C574.168,446.264,574.287,446.508,574.255,446.519z"/>
								</g>
							</g>
						</g>
					</g>
					<g>
						<g>
							<g>
								<g>
									<path style="fill:#263238;" d="M590.623,443.699c0,0.035-0.441,0.006-1.12,0.162c-0.673,0.15-1.591,0.533-2.344,1.279
										c-0.752,0.747-1.142,1.662-1.298,2.334c-0.161,0.678-0.136,1.119-0.171,1.118c-0.011,0-0.029-0.108-0.034-0.307
										c-0.006-0.199,0.01-0.488,0.076-0.839c0.126-0.697,0.511-1.659,1.295-2.438c0.785-0.778,1.75-1.155,2.448-1.276
										c0.352-0.063,0.641-0.077,0.84-0.07C590.515,443.669,590.623,443.688,590.623,443.699z"/>
								</g>
							</g>
						</g>
					</g>
					<g>
						<g>
							<g>
								<g>
									<path style="fill:#263238;" d="M588.355,437.534c0.051-0.006,0.263,1.388,0.473,3.113c0.21,1.726,0.339,3.129,0.288,3.136
										c-0.051,0.006-0.262-1.387-0.472-3.113C588.433,438.945,588.304,437.541,588.355,437.534z"/>
								</g>
							</g>
						</g>
					</g>
					<g>
						<g>
							<g>
								<g>
									<path style="fill:#263238;" d="M583.599,447.406c0.012,0.047-0.963,0.318-2.199,0.463
										c-1.236,0.148-2.247,0.113-2.246,0.064c-0.001-0.054,1-0.101,2.224-0.248C582.603,447.541,583.587,447.354,583.599,447.406
										z"/>
								</g>
							</g>
						</g>
					</g>
					<g>
						<g>
							<g>
								<g>
									<path style="fill:#263238;" d="M586.582,447.077c0.041,0.033-0.058,0.22-0.135,0.459c-0.08,0.238-0.11,0.447-0.163,0.45
										c-0.049,0.005-0.105-0.232-0.013-0.508C586.361,447.202,586.546,447.044,586.582,447.077z"/>
								</g>
							</g>
						</g>
					</g>
					<g>
						<g>
							<g>
								<g>
									<path style="fill:#263238;" d="M587.555,445.555c0.04,0.032-0.041,0.201-0.181,0.378c-0.14,0.177-0.286,0.294-0.327,0.263
										c-0.04-0.032,0.041-0.201,0.181-0.378C587.368,445.641,587.515,445.523,587.555,445.555z"/>
								</g>
							</g>
						</g>
					</g>
					<g>
						<g>
							<g>
								<g>
									<path style="fill:#263238;" d="M589.094,444.74c-0.005,0.053-0.207,0.073-0.422,0.176c-0.217,0.098-0.363,0.24-0.407,0.209
										c-0.044-0.023,0.061-0.254,0.329-0.378C588.861,444.623,589.105,444.691,589.094,444.74z"/>
								</g>
							</g>
						</g>
					</g>
					<g>
						<g>
							<g>
								<g>
									<path style="fill:#263238;" d="M590.207,444.314c0.024,0.046-0.055,0.133-0.176,0.196
										c-0.121,0.063-0.238,0.077-0.262,0.031c-0.024-0.045,0.055-0.133,0.176-0.196
										C590.066,444.282,590.184,444.268,590.207,444.314z"/>
								</g>
							</g>
						</g>
					</g>
				</g>
			</g>
			<g>
				<g>
					<g>
						<g>
							<g>
								<g>
									<path style="fill:#E8505B;" d="M530.947,446.282l0.243-8.173l15.312,0.358l-0.229,11.961l-0.951,0.039
										c-4.231,0.136-21.521,0.392-24.325-0.53C517.869,448.907,530.947,446.282,530.947,446.282z"/>
								</g>
							</g>
						</g>
						<g>
							<g>
								<g>
									<path style="fill:#E8505B;" d="M540.724,450.177c0.248-1.274,0.987-2.446,2.03-3.219c1.043-0.773,2.314-1.163,3.605-1.029
										l-0.097,4.279L540.724,450.177z"/>
								</g>
							</g>
						</g>
					</g>
					<g>
						<g>
							<g>
								<path style="fill:#E8505B;" d="M524.552,447.791c0,0-4.591,1.209-4.039,1.973c0.551,0.764,18.034,1.162,25.761,0.663
									l-0.017-0.343l-20.396-0.291C525.86,449.794,525.442,447.849,524.552,447.791z"/>
							</g>
						</g>
					</g>
					<g>
						<g>
							<g>
								<g>
									<path style="fill:#263238;" d="M546.497,450.081c0,0.006-0.091,0.014-0.264,0.023c-0.227,0.008-0.476,0.018-0.757,0.028
										c-0.757,0.015-1.688,0.034-2.786,0.056c-2.352,0.031-5.603,0.031-9.192-0.048c-3.59-0.08-6.838-0.222-9.187-0.357
										c-1.096-0.071-2.025-0.13-2.78-0.179c-0.28-0.023-0.528-0.043-0.755-0.062c-0.173-0.016-0.263-0.028-0.262-0.034
										c0-0.006,0.092-0.007,0.265-0.003c0.227,0.008,0.476,0.017,0.757,0.027c0.756,0.033,1.686,0.073,2.783,0.12
										c2.35,0.101,5.596,0.223,9.185,0.302c3.587,0.079,6.836,0.1,9.187,0.102c1.098,0.001,2.029,0.002,2.785,0.003
										c0.281,0.002,0.53,0.005,0.758,0.007C546.406,450.069,546.497,450.074,546.497,450.081z"/>
								</g>
							</g>
						</g>
					</g>
					<g>
						<g>
							<g>
								<g>
									<path style="fill:#263238;" d="M525.859,450.032c-0.057,0.006-0.085-0.66-0.49-1.34c-0.393-0.688-0.957-1.04-0.924-1.087
										c0.012-0.046,0.662,0.258,1.085,0.994C525.961,449.329,525.905,450.044,525.859,450.032z"/>
								</g>
							</g>
						</g>
					</g>
					<g>
						<g>
							<g>
								<g>
									<path style="fill:#263238;" d="M530.429,447.843c-0.044,0.027-0.254-0.241-0.469-0.598
										c-0.215-0.357-0.354-0.668-0.31-0.694c0.044-0.027,0.254,0.241,0.469,0.598
										C530.334,447.505,530.473,447.816,530.429,447.843z"/>
								</g>
							</g>
						</g>
					</g>
					<g>
						<g>
							<g>
								<g>
									<path style="fill:#263238;" d="M531.684,447.215c-0.035,0.037-0.273-0.129-0.532-0.372
										c-0.258-0.243-0.439-0.47-0.404-0.508c0.035-0.037,0.273,0.129,0.531,0.372
										C531.538,446.951,531.719,447.178,531.684,447.215z"/>
								</g>
							</g>
						</g>
					</g>
					<g>
						<g>
							<g>
								<g>
									<path style="fill:#263238;" d="M532.5,445.788c-0.001,0.051-0.359,0.089-0.801,0.084c-0.442-0.005-0.8-0.051-0.799-0.102
										c0.001-0.051,0.359-0.089,0.801-0.084C532.143,445.691,532.501,445.737,532.5,445.788z"/>
								</g>
							</g>
						</g>
					</g>
					<g>
						<g>
							<g>
								<g>
									<path style="fill:#263238;" d="M532.793,444.775c0.016,0.046-0.378,0.213-0.898,0.239c-0.52,0.029-0.929-0.096-0.918-0.144
										c0.01-0.053,0.414-0.014,0.908-0.042C532.38,444.805,532.778,444.724,532.793,444.775z"/>
								</g>
							</g>
						</g>
					</g>
					<g>
						<g>
							<g>
								<g>
									<path style="fill:#263238;" d="M529.94,446.495c0.001,0.021-0.378,0.058-0.984-0.029c-0.302-0.043-0.659-0.123-1.042-0.255
										c-0.19-0.073-0.39-0.128-0.594-0.261c-0.096-0.067-0.202-0.161-0.237-0.311c-0.037-0.148,0.045-0.312,0.158-0.39
										c0.952-0.466,1.881,0.085,2.219,0.579c0.187,0.253,0.269,0.496,0.306,0.664c0.036,0.169,0.031,0.265,0.02,0.266
										c-0.035,0.012-0.058-0.389-0.429-0.85c-0.183-0.226-0.463-0.448-0.828-0.565c-0.345-0.111-0.839-0.15-1.175,0.053
										c-0.159,0.112-0.102,0.297,0.069,0.405c0.159,0.108,0.367,0.177,0.548,0.249c0.37,0.137,0.714,0.228,1.007,0.287
										C529.566,446.455,529.941,446.465,529.94,446.495z"/>
								</g>
							</g>
						</g>
					</g>
					<g>
						<g>
							<g>
								<g>
									<path style="fill:#263238;" d="M529.684,446.538c-0.014,0.01-0.154-0.244-0.098-0.686c0.029-0.217,0.114-0.473,0.285-0.713
										c0.179-0.214,0.409-0.51,0.831-0.483c0.227,0.035,0.333,0.297,0.293,0.461c-0.022,0.172-0.103,0.318-0.177,0.436
										c-0.152,0.242-0.322,0.438-0.478,0.585c-0.315,0.294-0.562,0.404-0.572,0.385c-0.017-0.024,0.2-0.172,0.479-0.477
										c0.138-0.153,0.289-0.347,0.425-0.581c0.14-0.205,0.241-0.576-0.005-0.627c-0.246-0.029-0.503,0.21-0.658,0.403
										c-0.159,0.209-0.25,0.437-0.293,0.633C529.631,446.274,529.717,446.531,529.684,446.538z"/>
								</g>
							</g>
						</g>
					</g>
					<g>
						<g>
							<g>
								<g>
									<path style="fill:#263238;" d="M546.28,445.884c-0.004,0.034-0.438-0.052-1.132,0.014c-0.687,0.06-1.647,0.32-2.491,0.961
										c-0.844,0.642-1.35,1.498-1.592,2.144c-0.249,0.651-0.281,1.092-0.316,1.086c-0.011-0.001-0.014-0.111,0.007-0.309
										c0.02-0.198,0.074-0.482,0.186-0.822c0.216-0.675,0.724-1.578,1.603-2.248c0.88-0.668,1.886-0.916,2.594-0.944
										c0.357-0.017,0.646,0.008,0.842,0.041C546.176,445.841,546.282,445.873,546.28,445.884z"/>
								</g>
							</g>
						</g>
					</g>
					<g>
						<g>
							<g>
								<g>
									<path style="fill:#263238;" d="M544.838,439.476c0.051,0.001,0.079,1.41,0.061,3.148c-0.018,1.738-0.073,3.147-0.125,3.146
										c-0.051-0.001-0.078-1.41-0.061-3.148C544.731,440.884,544.787,439.475,544.838,439.476z"/>
								</g>
							</g>
						</g>
					</g>
					<g>
						<g>
							<g>
								<g>
									<path style="fill:#263238;" d="M538.831,448.641c0.005,0.048-0.996,0.189-2.24,0.171c-1.245-0.015-2.242-0.182-2.235-0.23
										c0.006-0.054,1.005,0.03,2.238,0.045C537.826,448.644,538.826,448.587,538.831,448.641z"/>
								</g>
							</g>
						</g>
					</g>
					<g>
						<g>
							<g>
								<g>
									<path style="fill:#263238;" d="M541.832,448.704c0.036,0.038-0.087,0.21-0.194,0.437c-0.111,0.226-0.168,0.429-0.221,0.425
										c-0.049-0.001-0.073-0.244,0.053-0.505C541.596,448.799,541.8,448.667,541.832,448.704z"/>
								</g>
							</g>
						</g>
					</g>
					<g>
						<g>
							<g>
								<g>
									<path style="fill:#263238;" d="M542.995,447.323c0.036,0.037-0.067,0.194-0.229,0.351
										c-0.162,0.157-0.322,0.255-0.358,0.218c-0.036-0.037,0.067-0.194,0.229-0.351
										C542.799,447.383,542.959,447.286,542.995,447.323z"/>
								</g>
							</g>
						</g>
					</g>
					<g>
						<g>
							<g>
								<g>
									<path style="fill:#263238;" d="M544.628,446.716c-0.012,0.052-0.215,0.045-0.442,0.119
										c-0.228,0.069-0.392,0.19-0.431,0.154c-0.041-0.029,0.093-0.244,0.375-0.332
										C544.412,446.569,544.645,446.669,544.628,446.716z"/>
								</g>
							</g>
						</g>
					</g>
					<g>
						<g>
							<g>
								<g>
									<path style="fill:#263238;" d="M545.787,446.439c0.018,0.048-0.072,0.125-0.201,0.171
										c-0.128,0.046-0.246,0.045-0.264-0.003c-0.018-0.048,0.072-0.125,0.201-0.171
										C545.652,446.389,545.77,446.391,545.787,446.439z"/>
								</g>
							</g>
						</g>
					</g>
				</g>
			</g>
			<g>
				<g>
					<path style="fill:#E8505B;" d="M587.119,267.9c0,0,10.876,56.908,8.383,57.634c-2.494,0.726-59.025,1.307-59.025,1.307
						l-6.13-54.248l26.949-8.902L587.119,267.9z"/>
					<path style="opacity:0.4;" d="M587.119,267.9c0,0,10.876,56.908,8.383,57.634c-2.494,0.726-59.025,1.307-59.025,1.307
						l-6.13-54.248l26.949-8.902L587.119,267.9z"/>
				</g>
				<g>
					<g>
						<path style="fill:#263238;" d="M584.715,253.329l1.053,103.271l8.67,84.938h-26.202l-5.282-82.508
							c0,0-2.081-67.82-4.198-67.861c-3.562-0.069-6.273,152.317-7.643,152.614c-2.327,0.504-26.67,0-26.67,0
							s7.848-177.997,7.784-178.001C532.164,265.777,584.715,253.329,584.715,253.329z"/>
					</g>
					<g>
						<g>
							<path style="fill:#455A64;" d="M559.718,290.496c-0.027,0.023-0.25-0.204-0.63-0.643c-0.341-0.464-0.845-1.15-1.26-2.106
								c-0.429-0.947-0.805-2.137-1.05-3.486c-0.246-1.349-0.36-2.853-0.394-4.424c-0.03-3.145,0.101-5.965,0.164-8.017
								c0.081-2.048,0.166-3.315,0.238-3.314c0.072,0.001,0.116,1.27,0.13,3.32c-0.003,2.198-0.007,4.953-0.012,8
								c0.034,3.11,0.482,5.905,1.262,7.776C558.918,289.488,559.8,290.435,559.718,290.496z"/>
						</g>
					</g>
					<g>
						<g>
							<path style="fill:#455A64;" d="M574.133,275.455c0.082,0.002,0.055,1.325,0.095,3.446c0.073,2.094,0.215,5.11,1.723,7.945
								c0.75,1.398,1.771,2.565,2.915,3.308c1.144,0.748,2.367,1.095,3.396,1.18c2.105,0.165,3.275-0.669,3.306-0.558
								c0.013,0.019-0.244,0.243-0.801,0.488c-0.553,0.245-1.43,0.474-2.527,0.438c-1.09-0.042-2.398-0.369-3.634-1.144
								c-1.238-0.772-2.329-2.001-3.115-3.466c-1.577-2.974-1.651-6.082-1.632-8.189c0.021-1.07,0.082-1.932,0.135-2.527
								C574.048,275.781,574.097,275.453,574.133,275.455z"/>
						</g>
					</g>
					<g>
						<g>
							<path style="fill:#455A64;" d="M530.347,291.862c0.031-0.033,0.258,0.185,0.744,0.436c0.484,0.241,1.259,0.489,2.228,0.421
								c0.967-0.046,2.077-0.476,3.094-1.269c1.021-0.785,1.966-1.893,2.805-3.141c1.693-2.509,2.475-5.198,2.776-7.15
								c0.295-1.965,0.207-3.211,0.297-3.215c0.034-0.002,0.085,0.306,0.132,0.869c0.029,0.563,0.044,1.385-0.064,2.394
								c-0.212,2.005-0.961,4.801-2.708,7.391c-0.867,1.286-1.849,2.42-2.95,3.234c-1.09,0.819-2.321,1.254-3.367,1.254
								c-1.047,0.025-1.864-0.302-2.345-0.613C530.507,292.151,530.327,291.879,530.347,291.862z"/>
						</g>
					</g>
					<g>
						<g>
							<path style="fill:#455A64;" d="M580.873,353.534c0.024,0.064-0.737,0.425-2.012,0.9c-1.274,0.475-3.066,1.048-5.083,1.539
								c-2.018,0.489-3.874,0.802-5.223,0.965c-1.35,0.163-2.192,0.191-2.2,0.124c-0.018-0.154,3.299-0.615,7.3-1.594
								C577.66,354.501,580.819,353.389,580.873,353.534z"/>
						</g>
					</g>
					<g>
						<g>
							<path style="fill:#455A64;" d="M578.907,352.383c0.007,0.144-2.175,0.365-4.872,0.494c-2.698,0.129-4.89,0.117-4.897-0.027
								c-0.007-0.144,2.174-0.365,4.872-0.493C576.707,352.228,578.9,352.24,578.907,352.383z"/>
						</g>
					</g>
					<g>
						<g>
							<path style="fill:#455A64;" d="M546.821,364.009c0.031,0.14-2.754,0.884-6.22,1.661c-3.468,0.777-6.303,1.293-6.335,1.153
								c-0.031-0.14,2.753-0.884,6.221-1.661C543.953,364.385,546.789,363.869,546.821,364.009z"/>
						</g>
					</g>
					<g>
						<g>
							<path style="fill:#455A64;" d="M545.871,361.225c-0.005,0.144-2.614,0.162-5.825,0.041c-3.212-0.121-5.811-0.336-5.806-0.479
								c0.005-0.144,2.613-0.162,5.826-0.041C543.277,360.867,545.877,361.081,545.871,361.225z"/>
						</g>
					</g>
				</g>
				<g>
					<path style="fill:#E8505B;" d="M570.115,187.122l8.293,0.011c0,0,8.224,0.176,13.632,7.795
						c3.796,5.347,4.43,12.328,2.097,18.457l-0.862,2.265l-8.106,19.077c-0.621,2.526,0,7.717,0,27.614l-52.942,3.441l2.297-33.287
						l0.873-9.622l0.418-12.036c0,0-9.72-6.536-17.53-16.355l15.734-15.696c0,0,11.657,10.253,14.763,9.952
						C551.888,188.436,570.115,187.122,570.115,187.122z"/>
				</g>
				<g>
					<g>
						<g>
							<g>
								<path style="fill:#FFBE9D;" d="M569.247,188.51l-16.287,1.204c-0.218-1.884-0.534-9.207-0.534-9.207
									s-6.802-0.632-7.301-7.363c-0.499-6.731-0.285-22.27-0.285-22.27l0,0c7.591-3.832,16.661-3.256,23.706,1.506l1.046,0.707
									L569.247,188.51z"/>
							</g>
							<g>
								<g>
									<path style="fill:#263238;" d="M547.105,162.355c0.378-0.388,0.37-1.008-0.018-1.386c-0.388-0.378-1.008-0.37-1.386,0.018
										c-0.378,0.388-0.37,1.008,0.018,1.386C546.106,162.751,546.727,162.743,547.105,162.355z"/>
								</g>
								<g>
									<g>
										<path style="fill:#263238;" d="M545.377,160.919c0.113,0.11,0.743-0.44,1.67-0.501c0.927-0.075,1.63,0.376,1.726,0.25
											c0.047-0.056-0.071-0.26-0.379-0.465c-0.302-0.204-0.81-0.388-1.388-0.345c-0.578,0.043-1.053,0.299-1.322,0.545
											C545.409,160.651,545.322,160.87,545.377,160.919z"/>
									</g>
								</g>
							</g>
							<g>
								<g>
									<path style="fill:#263238;" d="M556.115,161.068c-0.443,0.311-0.549,0.923-0.238,1.365
										c0.311,0.443,0.923,0.549,1.365,0.238c0.443-0.311,0.549-0.923,0.238-1.365
										C557.169,160.863,556.558,160.757,556.115,161.068z"/>
								</g>
								<g>
									<g>
										<path style="fill:#263238;" d="M555.504,161.114c0.113,0.11,0.743-0.44,1.67-0.501c0.927-0.075,1.63,0.376,1.726,0.251
											c0.047-0.056-0.071-0.26-0.379-0.465c-0.302-0.204-0.81-0.388-1.388-0.345c-0.578,0.043-1.053,0.299-1.322,0.545
											C555.536,160.846,555.45,161.065,555.504,161.114z"/>
									</g>
								</g>
							</g>
							<g>
								<g>
									<path style="fill:#263238;" d="M552.256,168.997c-0.002,0.072-0.586,0.122-1.529,0.146
										c-0.117,0.002-0.253,0.01-0.417-0.029c-0.162-0.032-0.361-0.165-0.44-0.36c-0.149-0.391-0.001-0.728,0.071-1.014
										c0.188-0.631,0.378-1.271,0.578-1.943c0.848-2.748,1.646-4.941,1.784-4.899c0.137,0.042-0.438,2.304-1.286,5.052
										c-0.213,0.667-0.417,1.303-0.617,1.93c-0.105,0.297-0.184,0.562-0.13,0.708c0.027,0.132,0.223,0.174,0.467,0.186
										C551.677,168.846,552.258,168.925,552.256,168.997z"/>
								</g>
							</g>
							<g>
								<path style="fill:#FFFFFF;" d="M555.333,169.836c0.931-0.635-2.574,1.578-4.468,1.603c0,0,1.19,1.664,3.088,0.834
									C555.924,171.41,555.333,169.836,555.333,169.836z"/>
							</g>
							<g>
								<path style="fill:#EB996E;" d="M552.409,180.411c0,0,4.278,0.084,8.628-3.037c0,0-1.776,4.976-8.535,4.784L552.409,180.411z
									"/>
							</g>
						</g>
					</g>
					<g>
						<g>
							<path style="fill:#FFBE9D;" d="M568.082,160.537c0.146-0.055,4.997-0.686,4.539,5.043c-0.458,5.729-6.092,3.371-6.089,3.206
								C566.535,168.621,568.082,160.537,568.082,160.537z"/>
						</g>
						<g>
							<g>
								<path style="fill:#EB996E;" d="M568.448,166.916c0.027-0.016,0.094,0.078,0.257,0.169c0.158,0.088,0.437,0.163,0.745,0.075
									c0.623-0.174,1.209-1.094,1.32-2.124c0.057-0.52-0.013-1.026-0.165-1.452c-0.141-0.433-0.389-0.747-0.689-0.826
									c-0.297-0.094-0.528,0.071-0.611,0.226c-0.089,0.154-0.062,0.271-0.094,0.279c-0.017,0.013-0.115-0.106-0.05-0.339
									c0.033-0.112,0.111-0.242,0.254-0.341c0.146-0.101,0.353-0.142,0.564-0.102c0.439,0.066,0.804,0.504,0.971,0.972
									c0.191,0.471,0.281,1.04,0.218,1.624c-0.129,1.151-0.806,2.184-1.654,2.358c-0.411,0.073-0.738-0.075-0.901-0.225
									C568.447,167.056,568.427,166.925,568.448,166.916z"/>
							</g>
						</g>
					</g>
					<g>
						<g>
							<g>
								<path style="fill:#E8505B;" d="M545.37,151.279c-1.664-0.41-2.838-2.143-2.776-3.855c0.062-1.712,1.243-3.286,2.802-3.999
									c1.558-0.713,3.422-0.614,4.988,0.081c0.473-2.488,2.909-4.449,5.442-4.379c2.532,0.07,4.856,2.163,5.19,4.674
									c0.163-1.3,1.634-2.027,2.942-2.105c1.305-0.078,2.705,0.306,3.553,1.302c0.848,0.996,0.933,2.665-0.032,3.548
									c1.457-0.165,2.995,0.139,4.18,1.001c1.186,0.863,1.968,2.317,1.858,3.78c-0.109,1.462-1.195,2.846-2.631,3.144
									c-0.494,0.103-1.089,0.129-1.356,0.558c-0.148,0.238-0.144,0.535-0.136,0.815c0.047,1.616,0.094,3.231,0.142,4.847
									c-0.853-0.43-1.935,0.188-2.349,1.05c-0.414,0.861-0.345,1.867-0.267,2.819c-0.415,0.624-1.461,0.439-1.913-0.158
									s-0.48-1.403-0.49-2.152c-0.033-2.598-0.066-5.196-0.099-7.794c-0.763,0.424-1.745,0.424-2.508,0s-1.282-1.257-1.327-2.128
									c-1.097,1.054-2.679,1.582-4.189,1.398c-1.51-0.184-2.919-1.077-3.73-2.365c-0.804,0.638-1.62,1.282-2.557,1.7
									c-0.937,0.418-2.025,0.592-2.995,0.258s-1.77-1.259-1.754-2.285c0.114-0.098,0.228-0.195,0.343-0.293"/>
							</g>
							<g>
								<g>
									<path style="fill:#E8505B;" d="M542.18,152.173c-0.028-0.006,0.066-0.227,0.423-0.255c0.169-0.009,0.389,0.037,0.583,0.211
										c0.2,0.177,0.296,0.499,0.228,0.811c-0.059,0.308-0.286,0.634-0.634,0.789c-0.342,0.159-0.752,0.167-1.136,0.043
										c-0.763-0.239-1.426-1.073-1.328-2.029c0.091-0.934,0.786-1.648,1.507-1.901c0.725-0.271,1.438-0.197,1.963-0.025
										c1.061,0.376,1.492,0.942,1.455,0.973c-0.05,0.077-0.573-0.37-1.554-0.618c-0.484-0.113-1.099-0.13-1.688,0.116
										c-0.582,0.228-1.096,0.802-1.166,1.504c-0.078,0.688,0.408,1.328,0.965,1.526c0.573,0.222,1.152-0.033,1.256-0.467
										c0.144-0.43-0.208-0.708-0.461-0.732C542.339,152.081,542.208,152.206,542.18,152.173z"/>
								</g>
							</g>
							<g>
								<g>
									<path style="fill:#E8505B;" d="M569.303,150.647c-0.052-0.065,0.415-0.43,1.031-1.096c0.3-0.337,0.621-0.769,0.807-1.311
										c0.185-0.535,0.22-1.187-0.109-1.724c-0.32-0.552-0.889-0.812-1.437-0.719c-0.551,0.077-1.056,0.322-1.444,0.537
										c-0.782,0.455-1.167,0.898-1.228,0.844c-0.05-0.033,0.239-0.578,1.029-1.153c0.401-0.273,0.9-0.575,1.573-0.702
										c0.333-0.059,0.731-0.042,1.091,0.129c0.358,0.165,0.658,0.453,0.863,0.799c0.431,0.705,0.356,1.552,0.112,2.155
										c-0.245,0.624-0.643,1.079-0.995,1.404C569.871,150.449,569.339,150.694,569.303,150.647z"/>
								</g>
							</g>
							<g>
								<g>
									<path style="fill:#E8505B;" d="M556.413,143.704c-0.055-0.03,0.138-0.608,0.644-1.47c0.259-0.425,0.615-0.923,1.143-1.362
										c0.529-0.438,1.263-0.777,2.08-0.793c0.815-0.04,1.633,0.362,2.032,0.966c0.414,0.591,0.514,1.24,0.505,1.749
										c-0.046,1.029-0.348,1.584-0.397,1.569c-0.088-0.016,0.08-0.622,0.029-1.558c-0.035-0.459-0.168-1.011-0.523-1.475
										c-0.344-0.466-0.953-0.755-1.635-0.73c-1.415,0.027-2.38,1.09-2.929,1.84C556.799,143.217,556.483,143.744,556.413,143.704
										z"/>
								</g>
							</g>
						</g>
						<g style="opacity:0.4;">
							<g>
								<path d="M545.37,151.279c-1.664-0.41-2.838-2.143-2.776-3.855c0.062-1.712,1.243-3.286,2.802-3.999
									c1.558-0.713,3.422-0.614,4.988,0.081c0.473-2.488,2.909-4.449,5.442-4.379c2.532,0.07,4.856,2.163,5.19,4.674
									c0.163-1.3,1.634-2.027,2.942-2.105c1.305-0.078,2.705,0.306,3.553,1.302c0.848,0.996,0.933,2.665-0.032,3.548
									c1.457-0.165,2.995,0.139,4.18,1.001c1.186,0.863,1.968,2.317,1.858,3.78c-0.109,1.462-1.195,2.846-2.631,3.144
									c-0.494,0.103-1.089,0.129-1.356,0.558c-0.148,0.238-0.144,0.535-0.136,0.815c0.047,1.616,0.094,3.231,0.142,4.847
									c-0.853-0.43-1.935,0.188-2.349,1.05c-0.414,0.861-0.345,1.867-0.267,2.819c-0.415,0.624-1.461,0.439-1.913-0.158
									s-0.48-1.403-0.49-2.152c-0.033-2.598-0.066-5.196-0.099-7.794c-0.763,0.424-1.745,0.424-2.508,0s-1.282-1.257-1.327-2.128
									c-1.097,1.054-2.679,1.582-4.189,1.398c-1.51-0.184-2.919-1.077-3.73-2.365c-0.804,0.638-1.62,1.282-2.557,1.7
									c-0.937,0.418-2.025,0.592-2.995,0.258s-1.77-1.259-1.754-2.285c0.114-0.098,0.228-0.195,0.343-0.293"/>
							</g>
							<g>
								<g>
									<path d="M542.18,152.173c-0.028-0.006,0.066-0.227,0.423-0.255c0.169-0.009,0.389,0.037,0.583,0.211
										c0.2,0.177,0.296,0.499,0.228,0.811c-0.059,0.308-0.286,0.634-0.634,0.789c-0.342,0.159-0.752,0.167-1.136,0.043
										c-0.763-0.239-1.426-1.073-1.328-2.029c0.091-0.934,0.786-1.648,1.507-1.901c0.725-0.271,1.438-0.197,1.963-0.025
										c1.061,0.376,1.492,0.942,1.455,0.973c-0.05,0.077-0.573-0.37-1.554-0.618c-0.484-0.113-1.099-0.13-1.688,0.116
										c-0.582,0.228-1.096,0.802-1.166,1.504c-0.078,0.688,0.408,1.328,0.965,1.526c0.573,0.222,1.152-0.033,1.256-0.467
										c0.144-0.43-0.208-0.708-0.461-0.732C542.339,152.081,542.208,152.206,542.18,152.173z"/>
								</g>
							</g>
							<g>
								<g>
									<path d="M569.303,150.647c-0.052-0.065,0.415-0.43,1.031-1.096c0.3-0.337,0.621-0.769,0.807-1.311
										c0.185-0.535,0.22-1.187-0.109-1.724c-0.32-0.552-0.889-0.812-1.437-0.719c-0.551,0.077-1.056,0.322-1.444,0.537
										c-0.782,0.455-1.167,0.898-1.228,0.844c-0.05-0.033,0.239-0.578,1.029-1.153c0.401-0.273,0.9-0.575,1.573-0.702
										c0.333-0.059,0.731-0.042,1.091,0.129c0.358,0.165,0.658,0.453,0.863,0.799c0.431,0.705,0.356,1.552,0.112,2.155
										c-0.245,0.624-0.643,1.079-0.995,1.404C569.871,150.449,569.339,150.694,569.303,150.647z"/>
								</g>
							</g>
							<g>
								<g>
									<path d="M556.413,143.704c-0.055-0.03,0.138-0.608,0.644-1.47c0.259-0.425,0.615-0.923,1.143-1.362
										c0.529-0.438,1.263-0.777,2.08-0.793c0.815-0.04,1.633,0.362,2.032,0.966c0.414,0.591,0.514,1.24,0.505,1.749
										c-0.046,1.029-0.348,1.584-0.397,1.569c-0.088-0.016,0.08-0.622,0.029-1.558c-0.035-0.459-0.168-1.011-0.523-1.475
										c-0.344-0.466-0.953-0.755-1.635-0.73c-1.415,0.027-2.38,1.09-2.929,1.84C556.799,143.217,556.483,143.744,556.413,143.704
										z"/>
								</g>
							</g>
						</g>
					</g>
				</g>
				<g>
					<path style="fill:#FFBE9D;" d="M574.493,210.47c0,0-10.261,18.504-14.117,21.73c-3.856,3.225-32.589-3.862-32.589-3.862l0,0
						l-0.467-0.79c0,0-1.339-1.619-3.041-4.92c-0.442-0.857-0.73-1.786-0.868-2.742c-0.167-1.16-0.328-2.709-0.159-3.583
						c0.209-1.081-0.975-1.872-1.696-1.2c-0.72,0.673-1.367,3.638-0.554,7.102c0.813,3.464-3.529,0.033-5.133-1.188
						c-1.604-1.222-6.737-4.764-7.49-4.559c-1.104,0.3-0.984,1.57,0.646,2.752c1.649,1.197,6.274,5.077,5.61,5.908
						c-0.653,0.819-8.736-5.513-8.736-5.513s-1.516-1.638-2.314-0.704c-1.439,1.685,7.632,7.771,8.508,8.329
						c0.61,0.388-0.078,1.318-0.711,0.866c-0.652-0.465-7.921-6.507-9.401-4.806c-1.137,1.306,7.416,5.078,8.252,7.184
						c0.835,2.106-6.208-3.534-7.243-2.241c-0.385,0.482-0.607,0.896,3.889,3.54c3.212,1.889,10.806,5.021,15.11,6.743
						c3.909,1.93,18.266,8.834,30.067,11.813c9.105,2.298,18.669,0.728,23.953-7.035l16.316-25.919L574.493,210.47z"/>
				</g>
				<g>
					<g>
						<g>
							<polygon style="fill:#E8505B;" points="530.347,272.592 558.175,265.782 558.175,262.725 531.923,260.599 							"/>
							<polygon style="opacity:0.4;" points="530.347,272.592 558.175,265.782 558.175,262.725 531.923,260.599 							"/>
						</g>
						<g>
							<path style="fill:#E8505B;" d="M585.84,258.652c-1.887,0.608-27.665,4.073-27.665,4.073v3.056l29.587,5.529L585.84,258.652z"
								/>
							<path style="opacity:0.4;" d="M585.84,258.652c-1.887,0.608-27.665,4.073-27.665,4.073v3.056l29.587,5.529L585.84,258.652z"
								/>
						</g>
						<g>
							<g>
								<path style="fill:#263238;" d="M553.009,267.305c-0.056,0.026-0.295-0.319-0.387-0.976c-0.096-0.644,0.015-1.62,0.614-2.47
									c0.603-0.847,1.489-1.275,2.128-1.397c0.651-0.131,1.055-0.019,1.049,0.042c0,0.081-0.389,0.107-0.949,0.312
									c-0.555,0.198-1.289,0.622-1.803,1.344c-0.511,0.724-0.668,1.557-0.672,2.146
									C552.981,266.903,553.085,267.278,553.009,267.305z"/>
							</g>
						</g>
						<g>
							<g>
								<path style="fill:#263238;" d="M553.891,263.631c-0.02-0.064,0.265-0.241,0.793-0.373c0.516-0.126,1.332-0.194,2.131,0.185
									c0.812,0.361,1.272,1.152,1.311,1.718c0.06,0.582-0.162,0.898-0.216,0.87c-0.077-0.022-0.008-0.342-0.145-0.799
									c-0.127-0.457-0.509-1.016-1.173-1.319c-0.656-0.313-1.353-0.32-1.852-0.291
									C554.237,263.654,553.913,263.704,553.891,263.631z"/>
							</g>
						</g>
						<g>
							<g>
								<path style="fill:#263238;" d="M558.458,262.875c0.122-0.068,0.555,0.678,0.39,1.674c-0.157,0.997-0.804,1.568-0.898,1.466
									c-0.117-0.095,0.257-0.71,0.383-1.549C558.478,263.63,558.318,262.928,558.458,262.875z"/>
							</g>
						</g>
						<g>
							<g>
								<path style="fill:#263238;" d="M534.428,267.354c-0.019-0.143,4.077-0.803,9.147-1.474c5.072-0.672,9.198-1.101,9.216-0.958
									c0.019,0.143-4.076,0.803-9.148,1.474C538.573,267.067,534.447,267.496,534.428,267.354z"/>
							</g>
						</g>
						<g>
							<g>
								<path style="fill:#263238;" d="M577.744,262.177c0.018,0.143-4.21,0.809-9.442,1.488c-5.235,0.68-9.492,1.115-9.51,0.972
									c-0.019-0.143,4.209-0.809,9.443-1.488C573.467,262.47,577.725,262.035,577.744,262.177z"/>
							</g>
						</g>
						<g>
							<g>
								<path style="fill:#263238;" d="M574.748,264.757c-0.004,0.074-0.892,0.081-2.324,0.066c-1.63-0.014-3.511-0.03-5.589-0.048
									c-2.078,0.011-3.96,0.021-5.59,0.03c-1.431,0.01-2.319,0-2.323-0.074c-0.004-0.07,0.877-0.19,2.309-0.294
									c1.432-0.105,3.414-0.186,5.605-0.183c2.19,0.004,4.173,0.092,5.604,0.201C573.871,264.565,574.752,264.687,574.748,264.757
									z"/>
							</g>
						</g>
					</g>
					<g>
						<g>
							<path style="fill:#E8505B;" d="M553.994,264.278c0,0-7.729,19.85-8.432,39.525v5.973l11.001,0.476
								c0,0-1.635-30.75,1.611-44.47L553.994,264.278z"/>
							<path style="opacity:0.4;" d="M553.994,264.278c0,0-7.729,19.85-8.432,39.525v5.973l11.001,0.476
								c0,0-1.635-30.75,1.611-44.47L553.994,264.278z"/>
						</g>
						<g>
							<g>
								<path style="fill:#263238;" d="M556.29,307.638c-0.012,0.147-2.43,0.071-5.409,0.023c-2.98-0.053-5.399-0.06-5.406-0.207
									c-0.007-0.14,2.417-0.367,5.415-0.314C553.886,307.188,556.301,307.498,556.29,307.638z"/>
							</g>
						</g>
						<g>
							<g>
								<path style="fill:#263238;" d="M548.561,309.887c-0.138,0.033-0.385-0.521-0.45-1.249c-0.067-0.729,0.076-1.317,0.217-1.31
									c0.146,0.006,0.237,0.573,0.301,1.263C548.691,309.28,548.703,309.854,548.561,309.887z"/>
							</g>
						</g>
						<g>
							<g>
								<path style="fill:#263238;" d="M553.163,310.117c-0.133,0.047-0.437-0.496-0.51-1.241c-0.077-0.745,0.113-1.336,0.253-1.317
									c0.146,0.017,0.195,0.585,0.266,1.265C553.236,309.505,553.302,310.071,553.163,310.117z"/>
							</g>
						</g>
						<g>
							<g>
								<path style="fill:#263238;" d="M551.383,283.494c-0.067-0.009,0.009-1.168,0.267-3.028c0.257-1.859,0.716-4.415,1.402-7.197
									c0.688-2.783,1.471-5.259,2.108-7.024c0.637-1.766,1.109-2.827,1.172-2.804c0.072,0.026-0.278,1.131-0.823,2.92
									c-0.546,1.788-1.268,4.266-1.952,7.033c-0.682,2.767-1.195,5.296-1.544,7.133
									C551.663,282.363,551.459,283.504,551.383,283.494z"/>
							</g>
						</g>
					</g>
				</g>
			</g>
		</g>
	</g>
</g>
</svg>
